<?xml version="1.0" encoding="UTF-8"?>
<svg id="Warstwa_1" xmlns="http://www.w3.org/2000/svg" version="1.1" viewBox="0 0 468 239">
  <!-- Generator: Adobe Illustrator 29.3.0, SVG Export Plug-In . SVG Version: 2.1.0 Build 146)  -->
  <defs>
    <style>
      .st0 {
        fill: #068d38;
      }

      .st1 {
        fill: #e98901;
      }

      .st2 {
        fill: #d61017;
      }

      .st3 {
        fill: #964996;
      }

      .st4 {
        fill: #006b94;
      }

      .st5 {
        fill: #e4d500;
      }
    </style>
  </defs>
  <g>
    <path class="st5" d="M232.9,65.5c-.6.3-1.4.4-1.8,0-.1,0-.3,0-.3,0,0,.2-.2.2-.6,0-.4-.2-.5-.2-.6,0,0,.1-.2.2-.4.2s-.4.1-.5.2c-.2.2-.3.2-.5,0-.5-.3-.9-.3-3.2.1-1.9.3-3.1.7-3.1,1.1s-.1.1-.3,0c-.1,0-.3,0-.3,0,0,.1-.2.2-.4.2s-.4.2-.7.4-.5.4-.6.4c-.4,0-1.1,0-1.2-.2,0,0-.6,0-1.1,0-1.1.2-1.7-.1-1.8-.7-.1-.3-.3-.4-.7-.2-.1,0-.4.5-.6,1.1-.6,1.4-1,1.8-2,2.3-1,.5-2,1.4-2,1.8s-.2.5-.4.8c-.3.4-.4.7-.4,1.6s0,1.2-.2,1.3-.2.3-.2.4-.3.4-.6.7c-.3.3-.8.6-.9.8-.4.4-1.4.8-1.7.8s-.6.3-1.1,1.2c-.2.5-.5.8-.5.8-.5,0-1.4,1.4-1.4,2.1s-.4,1.1-1.1,1.7c-.2.2-.5.8-.8,1.4-.2.6-.5,1.1-.7,1.2-.2.1-.3.5-.4.8,0,.4-.2.8-.2,1.1,0,.3,0,.4.1.3.1,0,.4.1.6.3.4.4.5.9.2.9s-.4.8-.1,1.2c.4.5.3,2,0,3-.2.5-.3,1.1-.3,1.3,0,.5-.8,1.9-1.1,1.9s-.2,0-.2.2.1.2.3.2.3.2.4.5c.1.3.3.6.3.8,0,.2,0,.3,0,.4-.1,0-.2.5-.2.9,0,.7.1.9.5,1.3.6.5.7.8.2.7-.2,0-.3,0-.2.3.2.6.3.7.7.4.2-.2.3-.3.1-.3-.3,0-.3-.6,0-.6s.2.2.3.5c0,.3.3.5.3.5s.2.1.2.3.1.3.3.3.3,0,.3.1.4.5.8,1c.5.6.8,1.1.9,1.4,0,.7.1,1.1.3,1.2.1,0,.1.2,0,.3,0,.1,0,.2,0,.2s.1.1.1.2c0,.1.2.3.6.5.7.3,1.3.8,3.3,2.6,2.1,1.8,2.6,2,4.1,1.3,1.6-.8,4.2-.8,5.6-.2.2,0,.5,0,.8-.1,1.6-.8,2.7-1.3,3.1-1.3s.4-.1.5-.2c.1-.3,1.5-.6,3.1-.6,1,0,1.3,0,1.6.3.4.4,1,1.5,1,1.8s.2.4.4.6c.3.3.5.3,1,.3.3,0,.9-.1,1.3-.2.4,0,.9-.1,1.2-.1.4,0,.6,0,.6.3,0,.2.3.4.4.5s.3.2.3.3.1.3.2.4c.3.3.2,1.9-.3,2.8-.2.4-.3.6-.1.7.1,0,.2.2,0,.4,0,.2-.2.7-.2,1.1,0,.7-.3,1.1-.6.9-.2-.1-.2.3.1.9.1.3.4.8.5,1.2s.6.9.9,1.3c1.2,1.2,2.7,3.4,2.7,4s0,.4.2.5c.1,0,.1.2,0,.3s0,.6.3,1.1c.2.5.5,1.3.7,1.8.3.9.3.9,0,1.1-.3.2-.3.3.2,1.6.4.9.5,1.7.5,2.2,0,.9-.3,1.7-.6,1.7-.3,0-1.1,1.4-1.2,2.2-.1,1-.6,2.5-.7,2.5-.2,0-.1,3.1.1,3.7.1.3.3.6.3.6.2,0,.9,1.5,1.6,3.3.2.4.5,1,.7,1.4.4.6.5,1,.5,2,0,.6.1,1.6.2,2,.1.5.3,1.5.5,2.4.3,1.7.6,2.3,1.4,3.3.4.4.8,1.1,1,1.9.4,1.3,1,2.5,1.2,2.6,0,0,.2.4.3.9.1.7,0,.8-.2.8s-.3.1-.3.2c0,.2.2.8.5,1,0,0,.1.3,0,.5-.1.6.1,1,.4.6.1-.2.2-.2.2,0s.1.2.2.2.4.2.5.3c.4.4.7.4,1.1,0,.2-.2.6-.3,1-.3.4,0,.9,0,1.1-.2.5-.3,1.7-.4,2.6-.2.4.1.7.1.9,0,.1-.1.4-.2.6-.1s.4,0,.4-.1c0-.1.3-.2.7-.3.9-.1,2.6-1.2,3.6-2.3.2-.2.6-.7,1-1,.6-.6,1.8-2.3,1.8-2.6s1.1-1.4,1.4-1.4.5-.6.9-2c.3-.9.4-2.2.1-2-.3.2-.2-.2.2-.7.2-.2.9-.6,1.6-.9.9-.3,1.3-.6,1.6-1,.2-.4.3-.6.2-.7s-.1-.3,0-.6c.2-.5.2-1.9,0-2.1s-.2-.3-.2-.3,0,0,.2,0c.1.2.2.2.2-.1s0-.4-.2-.3c-.1,0-.2-.2-.2-.5,0-.3-.1-.6-.2-.6-.1,0-.2-.2-.2-.4,0-.4,1.5-2.1,1.9-2.1s.3,0,.3-.1.1-.3.3-.5c.6-.8,1.2-1.3,2.2-1.7.5-.2,1-.4,1.1-.5,0,0,.2-.2.4-.3.4-.2,1.6-1.8,1.8-2.5.2-.5.2-.8,0-1.4-.1-.4-.2-1.7-.2-2.9,0-2.8,0-2.7-.4-2.9-.3-.2-.5-.4-.7-1.4-.4-1.5-.4-1.7,0-1.8.2,0,.3-.2.3-.3s-.1-.2-.3-.1c-.3.1-.5-.4-.3-.7.1-.2,0-.4-.3-.9-.3-.3-.5-.7-.5-.8,0-.4.6-1.9.7-2.1s.9-1.9,1.1-2.5c0-.2.3-.5.4-.6.5-.3,1.4-1.2,1.7-1.9.7-1.4,3-3.9,4.4-4.8.9-.6,3.6-3.5,3.6-4,0,0,.3-.6.6-1.1s.6-1.1.6-1.2c0-.3,1-2.6,1.2-2.6,0,0,.1-.1.1-.2s.2-.5.4-1c.2-.5.4-1.1.4-1.4s0-.6.3-.7c.4-.1.5-.3.2-.4-.2,0-.2-.9-.1-1.6,0-.5-.6-.7-1-.3-.4.4-1.8.9-2.2.7-.1,0-.4,0-.7.1s-.6.2-.8.1c-.2,0-.5,0-.8.3-.3.2-.6.3-1,.3-.4,0-.7,0-1.1.2-.9.5-1.5.3-2.2-.7-.2-.3-.5-.5-.7-.6h-.4c0-.1.4-.3.4-.3.6-.3.6-.8-.2-1.7s-.8-.9-1-1.1c-.1-.2-.3-.4-.4-.4s-.3-.2-.5-.5c-.2-.3-.4-.6-.6-.6s-.4-.2-.5-.3c-.1-.1-.3-.2-.4-.1-.2,0-.3,0-.3-.3,0-.3,0-.4.2-.4s.2,0,0-.3c-.3-.3-.4-.3-.5.1-.1.4-.1.4-.4,0-.2-.2-.3-.6-.4-1-.5-2-.7-2.4-1.5-3.1-.9-.7-1.2-1.3-1.2-2.9,0-.6-.2-1.3-.3-1.4-.1-.2-.2-.5-.3-.7,0-.2,0-.4-.1-.4s-.4-.3-.8-.6c-.8-.7-1.3-1.9-.7-1.9s.1-.1-.2-.4c-.2-.2-.6-.8-.9-1.4-.3-.6-.7-1.3-.9-1.6-.2-.4-.4-.7-.4-.8s-.1-.4-.3-.6c-.2-.2-.3-.6-.3-.7,0-.2-.3-.6-.6-1-.3-.4-.6-.9-.6-1.1s0-.4-.2-.5c-.1,0-.2-.6-.3-1.3,0-.6-.2-1.3-.3-1.5-.4-.6-2.5-.4-3.2.3-.2.2-.5.3-.7.2-.2,0-.7-.2-1.1-.3-.4-.1-.9-.3-1.1-.3-.6-.3-1.7-.5-2.2-.4-.3,0-.5,0-.5-.3s-.3-.4-.6-.4c-.9,0-1.8-.3-1.9-.7,0-.2-.2-.3-.4-.3s-.4,0-.5-.2c-.3-.4-1.9,0-2.6.6-.5.5-.7,1.2-.4,1.7.3.4-.4,1.4-1,1.4-.1,0-.6-.2-.9-.5-.7-.5-1.8-.9-2.5-.9s-1.1-.4-1.3-1c0-.3-.3-.6-.6-.7-.3-.1-.7-.3-.9-.4-.3-.2-.9-.3-1.4-.2-.6,0-1.1-.1-1.6-.3-.7-.3-1.1-.9-.9-1.1s0-.1-.2-.1-.3,0-.3.2c0,.3-.5.2-.7-.2-.1-.3,0-.4.3-.8.3-.2.6-.4.8-.3.1,0,.3,0,.3-.1s0-.1-.2,0c-.1,0-.1-.1,0-.6,0-.6,0-.7-.3-.9-.4-.2-.5-.6,0-1,.1-.2.2-.4.2-.5s0-.2,0-.1c.1,0,.2,0,.2,0,0-.3-.2-.4-.5,0s-.3.3-.4,0c0-.3-.5-.5-.9-.6,0,0-.4.2-.7.3ZM265.2,120.2c.1.2.2.4,0,.5,0,.1-.1.3,0,.4.1.2-.3,1.1-.4,1.1s-.1,0-.1.2-.1.3-.3.4c-.3.2-.3.3,0,.5.4.3.2.4-.7.3-.5,0-.8,0-1,0-.3.3-.4-.1-.3-1.3.2-1.8.2-1.9.9-2.1.4-.1.7-.3.8-.3.2-.2.9.1,1.2.5ZM259.4,126.7c0,.3,0,.5.2.6.1,0,.1.2,0,.4s0,.4,0,.6c.2.3.2.4,0,.4-.3.1-.2.7.2.9.4.2.6.5.6,1.1s.2.7.4,1.2c.5,1,.5,1.1,0,.8-.3-.1-.4-.3-.3-.4,0-.1,0-.4-.2-.6s-.3-.5-.3-.6-.2-.5-.5-.8c-.3-.3-.5-.7-.5-.9,0-.2,0-.5,0-.8,0-.3,0-1.1-.1-1.9,0-1.2,0-1.3.2-.8.1.3.2.7.2,1ZM265.5,134.5c.1.2.2.7.2,1.1,0,.4.1.9.2,1,.3.3.3.9,0,1.1-.2.2-.1,2.5.2,2.6s.2.1.2.2,0,.1-.2,0c0,0-.2,0-.2,0s0,.2-.2.2-.1-.2,0-.3c0-.2,0-.4,0-.6-.2-.2-.4-1.5-.4-2.1.1-2,0-2.6-.1-3s-.2-.5-.2-.6c0-.3.3-.1.5.2Z"/>
    <path class="st5" d="M284.3,137.9c-.1.2-.3.6-.3,1,0,.7-.2.8-.6.6s-.3-.2-.3,0,.1.3.2.3c.1,0,0,0-.2,0-.4,0-.5,0-.4.6,0,.2,0,.3-.2.4,0,0-.2.3-.2.4s0,.3-.3.2c-.2,0-.3,0-.3.2,0,.3-1.2,1.2-2.1,1.5-.4.1-.7.3-.8.4-.1,0-.3.1-.6.1s-.4,0-.4.5-.2.7-.3,1c-.3.5-.3.9,0,2.9.2,1.1.2,1.2-.3,2.1-.3.5-.6,1-.6,1.1-.6.4-.8,2-.4,2.8.1.3.2.7.2,1.2s0,.8.1.8c.1,0,.2.3.2.4,0,.4.5.9.9.9s.3,0,.3.2c0,.3.9.2,1.3,0s.5-.3.8-.3c.5,0,1.2-.7,1.2-1.2s.1-.4.2-.6c.1-.2.3-.8.4-1.3.1-.5.4-1.2.5-1.5.2-.3.4-1,.5-1.4.1-.5.5-1.6.8-2.5.4-.9.7-1.9.7-2.3.2-1.2.3-1.4.5-1.4.2,0,.2-.1,0-1.4v-.8c-.1,0,.2.4.2.4l.3.4.3-.5c.2-.4.2-.6.1-.9,0-.2-.2-.7-.2-1.1s0-1-.2-1.3c-.2-.7-.9-2.2-1-2.2,0,0-.2.2-.3.4Z"/>
  </g>
  <g>
    <path class="st3" d="M300.7,7.7c-1.2.3-1.2.3-.8.5.3.1.3.2,0,.2-.6,0-.6.3-.2.8.4.4.8.5.9.2,0-.2.1-.2.1,0,0,.1.1.2.3.2s.3-.1.3-.2,0-.1.2,0c0,.1.3.2.4.1.2,0,.6,0,1,.1.8.3,3.2.6,4.3.6s1.2-.3.6-.5c-.2,0-.4-.2-.4-.4,0-.4-.4-.5-1.7-.6-1.3,0-1.7-.2-1.5-.5.1-.2,0-.3-.9-.4-1.7-.3-1.7-.3-2.4-.2Z"/>
    <path class="st3" d="M311.7,11.3c-.5.2-.6.7-.4,1,.2.2,0,.2-.6.2s-.8,0-.8.2c0,0-.3.2-.7.3s-.6,0-.5,0c.2-.3-3.1,0-3.4.3-.1.1-.7.3-1.4.3-.6,0-1.3.2-1.5.4-.3.2-.6.2-.8.2-.2,0-.4,0-.4,0s-.1.2-.3.2-.3.1-.3.3c0,.2,0,.2-.1,0-.1-.3-.7-.3-.8,0,0,.2,0,.3,0,.4,0,0,.2,0,.2-.1,0-.2.2-.2.5,0,.2.1.5.2.7.2.2,0,.3,0,.4.2.1.3-1.2.3-1.4,0,0-.1-.2-.2-.4-.2-.2,0-.2,0,0,.2.4.2-.2.3-1.8.4h-1.4s.5.4.5.4c.3.2.7.6.8.7s.7.4,1.2.4c.4,0,.8.2.8.2s.1.2.3.2c.2,0,0,0-.3.1-.3,0-.8,0-1-.2-.4-.2-1.5-.5-3.2-.7-.3,0-.6,0-.7.2-.2.2-.2.3.2.3.4,0,.3,0-.4.2-.5.1-.5.1-.2.3.2.1.6.3.9.4q.6.2-.2.1c-.8,0-1.3-.4-1.3-1,0-.3-.7-1-1-1s-.4-.1-.5-.2c-.2-.2-.4-.2-.5,0s0,.2.4.4c.3.1.6.1.7,0,0,0,.1,0,0,0,0,.1,0,.2,0,.3.3.2.2.4-.3.5-.3,0-.5.2-.5.3s0,.3-.2.3c-.1,0,.2.3.8.6.9.5.9.5.8,1,0,.4,0,.6.3.8.2.1.4.3.4.5s.3.2,1.2.1c1.1,0,1.1,0,.6,0-.9.2-1,.6-.4,1.1.4.3.5.4.3.6s-.2.4-.2.6c0,.3-.1.4-.5.5-.3,0-.5.2-.5.4s-.1.2-.5.2c-.3,0-.6-.2-.7-.3s0-.1.1,0,.4,0,.6-.6c.2-.4.4-.7.4-.7s.1-.3.1-.6c0-.5-.1-.6-.7-.9-.4-.2-.7-.4-.7-.5s-.2-.5-.4-.8-.4-.7-.4-.9c0-.4-.4-.8-1-.9-.3,0-.4-.2-.3-.3.3-.3.2-.8,0-1.2-.2-.2-.6-.4-1.4-.4-.7,0-.9-.2-.6-.2.6,0,.6,0,.3-.3-.4-.3-1.7-.4-1.6,0,0,.1,0,.3-.2.4-.1.1-.2.5-.2.9,0,.6,0,.7-.5.9-.6.3-.7.7,0,.9.3.1.4.3.4.7,0,.5.4.9.7.8.1,0,.5,0,.7.2.3.2.7.4.9.5.4.2.5.4.3.6,0,0-.7-.1-1.3-.4-1.7-.7-2-.7-1.2.2.3.4.6.7.6.8,0,.6-1.9,1.9-3.6,2.5-.4.2-.9.4-1,.5-.1.1.1.8.8,2.3,1,2.1,1.4,4,1.4,6,0,1,.2,1.6.9,2.2.9.8.5,2.2-.7,2.2s-.6.2-.8.3c-.3.3-.3.3.1.8.2.3.6.8.8,1.1.6.8,1.1.8,1.8,0,.7-.8,1.2-.8,1.6,0,.3.4.3.6.1,1.3-.2.7-.2.8.2,1.1q1.1.8.9,1c-.3.2,0,.5.9.8,1.1.4.9,1.4-.3,1.2-.5,0-.7,0-.7.2-.1.3-.5.3-.8,0-.2-.1-.4-.3-.6-.3s-.3,0-.3-.2-.3-.2-.8,0c-.6,0-1.1,0-1.8-.3-1.1-.4-3.2-.5-3.5-.2s-.6.2-1,.2-1.2,0-1.5.2q-.6.2-.5.9c.1.9.3,1.2,1,2,.5.5.6.8.5,1.2,0,.5,0,.7.4.9.3.2.5.4.5.6,0,.3.6.5,1.2.3.4,0,.5,0,.8.3.3.4.5,2,.3,1.9,0,0-.5-.1-1-.2-.8,0-.9,0-1.1.4-.1.2-.2.5-.1.6,0,0-.1.2-.4.2-.5,0-.5,0-.3.3.1.2.3.3.4.3s.4.2.5.5c.2.3.4.5.4.5s.1.2.1.4,0,.3.2.2c.1,0,.3,0,.4.1.1.2.4.3.6.3.6,0,.7.2.6,1,0,.4,0,.7,0,.7.3,0,.8,1,.7,1.4-.1.5.3,1.2.6,1.2.2,0,.2,0,.2.5,0,.4,0,.5.2.4.4-.2.7.4.9,1.6.1.6.2,1.2.3,1.4,0,.2-.1.3-1.1.6-1.4.3-2,.2-3-.6-.4-.3-.8-.5-1-.5-.5,0-.9-.5-1.1-1.3,0-.4,0-.7.1-.8.1-.1.2-.5.2-1,0-.8,0-.8.5-.8.3,0,.5,0,.5-.2s-.2-.2-.6-.1c-.8,0-4.3-1.7-5.7-2.9l-1.1-1h-.9c-.8.2-1,.2-1.7-.3-.4-.3-1.1-.5-1.4-.6s-.8-.3-1.2-.4c-.4-.2-.6-.3-1-.1l-.4.2.4.4c.2.2.8.6,1.3.9.7.4,1.1.6,1.3,1.1.6,1.2-.2,1.7-2.5,1.8-.9,0-1.6,0-1.6-.1s-.2-.2-.5-.2-.6,0-.6-.2c0-.1-.3-.1-.4,0-.2,0-.4,0-.5-.3-.1-.3-.3-.3-.5-.2-.3,0-.4,0-.6-.2-.3-.3-.4-.3-1.7-.2-1.4.1-2.4.5-2.9,1.1-.1.2-.5.2-1.4,0-1.3-.1-1.8,0-1.3.5s-.2.6-1.8.7c-.8,0-1.5.1-1.6.2,0,.1-.2.1-.3,0s-.2,0-.2.1.1.2.3.2.3.2.3.4c0,.4.1.5.6.4.1,0,.2.1.1.3,0,.2,0,.4,0,.5,0,0,.1.3.1.5,0,.2,0,.2,0,.1-.2-.3-.5-.2-.5.2,0,.3.2.4.6.6.3.1.5.2.4.2-.2,0-.2,0,0,.4.1.2.3.4.4.5,0,0,0,.2-.2.3-.3.2-.3.2.5.2.3,0,.3,0,0,0-.2,0-.3.2-.3.3s.1.1.3,0c.1,0,.3,0,.3,0s.1.2.3.2.3,0,.3-.2c0-.3.8,0,1.2.4s.5.3,1,.3c.7,0,.8-.2.7-.8,0-.5,1.3,0,2.1.7.5.5,1.9.3,2.4-.3.4-.5.6-.5,1.1-.2.3.2.4.2.7-.1.4-.4.7-.2.3.2-.2.2-.2.3-.1.5s.1.3,0,.5c0,.2,0,.4,0,.5.2.2.4,1.4.2,1.5-.2.3-.8,2.1-1,3.1-.2,1.1-.6,1.5-1.2,1.5-.2,0-.7,0-.9,0-.5,0-.6.2-.6.6,0,.8.3,2,.7,2.3.2.2.3.5.3.6,0,.3,1.2,1.6,1.4,1.6s.2-.1.4-.3c.2-.1.4-.3.6-.3s.3.1.3.3,0,.3.2.3.2,0,.2.2.1.3.3.5c.2.2.4.6.6,1s.5.8.6,1c.4.4.8,1.3.7,1.4s.5,1.1.7,1.1.3.1.3.3c0,.1.2.2.3.1,0,0,.1,0,0,0,0,.1,0,.4.2.6s.3.5.3.7,0,.3.2.4c.1,0,.2.4,0,.7,0,.5,0,.7.2.9.1.1.2.4.2.5,0,.2,0,.4.3.6.2.2.5.4.5.5,0,.2.3.4.6.6.3.2.5.4.4.4,0,0,.1.2.3.3.3.2.4.3.4.7s.1.6.3.8c.2.1.3.3.3.4s.3.4.6.8c.3.4.6.7.6.9s0,.2.2.2.2.2.3.5q.2.5-.2.2c-.2-.2-.3-.4-.2-.4,0,0,0-.1-.2,0-.2,0-.3,0-.2-.1,0-.1,0-.3-.2-.3-.2,0-.3,0-.2.3q0,.3-.2,0c-.1-.2-.3-.2-.3-.2-.1.2.8,1.6.9,1.5.2-.1.9.6.9.9,0,.2,0,.4.1.4.1.2.7,2.2.7,2.5,0,.8.3,1.2.9,1.3.3,0,.7,0,.8,0s.3-.1.4,0c.1,0,.5-.2.8-.4.4-.4.7-.5,1.1-.5.6,0,1.7-.4,1.8-.7,0,0,.4-.2.7-.2s.7-.1.9-.4c.2-.3.8-.6,1.7-.9,1.6-.6,2.4-1,2.4-1.3-.1-.5.2-.8.9-1.1,1.3-.5,1.5-.6,2.1-.6s.9-.2,1-.8c0-.3.2-.4.6-.5.6,0,.9-.3.9-.7s.6-.8,1.1-.8.4,0,.3-1c0-1.1.2-1.4.6-.9.2.2.3.2.5,0,.3-.3.2-.8,0-.6-.3.2-.2-.3.3-.7.5-.6.9-1.5.9-1.8s-.2-.3-.4-.3-.4-.1-.4-.3c0-.2-.2-.3-.2-.3s-.2,0-.2-.2c0-.4-.5-.7-1.3-.8-1.5-.3-2.3-1.2-2.3-2.9s-.2-1.3-.6-.5c-.4.7-2.4,2.7-2.6,2.6-.1,0-.2,0-.2,0s-.3.1-.6,0-.6-.1-.6-.2,0-.2-.2-.2-.2.1-.2.2c0,.4-.3.5-.7.2-.2-.2-.4-.3-.5-.3s-.2-.1,0-.4c.2-.5,0-2-.2-2.2-.4-.3-.6-.1-.8.5l-.2.7-.3-.5c-.3-.5-.4-.7-.1-.7s.2.1.2.3,0,.2.2.2c.3-.2.2-.6-.2-.7-.2,0-.4-.2-.4-.2,0,0,0-.2,0-.3,0,0-.2-.3-.4-.4s-.3-.3-.3-.5c0-.1-.1-.2-.2-.2-.1,0-.2,0-.2-.1s-.2-.2-.3-.3-.3-.2-.3-.4,0-.2-.1-.2c-.2,0-.9-1.6-.8-2,0-.2,0-.3,0-.1s-.2.2-.4,0c-.2-.1-.2-.2,0-.2s.4-.1.5-.3c.6-.6.7-.7,1.1-.5s.4.1.6,0c.2,0,.4,0,.7.5.2.3.4.6.4.7s0,.2.2.3c0,0,.4.4.6.9.4.6.7.9,1.1,1,.3.1.8.4,1.1.7s.6.5.8.5c.2,0,.2,0,0,.2-.2.1,0,.2.4.3s.6.2.5.3c0,0,0,.2,0,.2s.2,0,.2-.2.1-.1.3,0c.2.1.4.1.5,0,0,0,.4-.2.8-.2.7,0,1.1-.4,1-.6-.1-.2.6-.2.7,0,0,.1.2.5.3.9.2.8.9,1.2,2.4,1.4,1.3.1,1.8.2,2.4.4.7.2,2.2.2,2.2,0s.3-.1.7,0c.4,0,.7,0,.7,0s.2-.1.6,0c.3,0,1.1,0,1.7,0,1.3-.2,1.6-.1,1.6.4s.1.3.3.3.4.2.4.5c.1.6.6,1.1.9,1.1s.5.2.7.5c.7.7,1.4,1,2.1.9.5,0,.5,0,.2.2-.3.3-.6.3-1.2.3-.2,0-.3,0-.3.2,0,.3,2.3,2.5,2.7,2.5.9,0,2.2-1.2,1.8-1.6s0-.8.2-.8,0,.2,0,.4c0,.3,0,.4.1.4s.2,0,.1.2c0,.1,0,.4.2.7.2.4.2.7.2,1.1,0,.3,0,.8,0,1.2.4,1.5.8,2.7,1,3.6.1.5.5,1.5.8,2.2.4.7.8,1.5.9,1.8.2.3.4,1,.6,1.6.2.5.5,1.4.8,1.9.6.9,1.5,2.9,1.5,3.4s.9,1.8,1.4,2.1c.5.3,1.1-.1,1.2-.8.1-.5.7-.8,1.3-.6.3,0,.3,0,.3-.1,0-.1-.2-.2-.3-.2-.3,0-.3-.1,0-.8.1-.3.3-.5.6-.5s.4,0,.3-.5c-.2-.8-.2-2.2,0-2.4.3-.3.3-1.7,0-3-.3-1.8-.2-2.3.4-2.1.3,0,.4,0,.5-.3,0-.2.2-.4.3-.4.6,0,1.1-.4,1.1-.9s0-.5.2-.5c.3,0,2-1.7,2.5-2.5.3-.4.8-.9,1.2-1.1.4-.2.8-.5,1-.7.4-.4.4-.6.3-1.4,0-.2,0-.5.2-.5s.4-.2.6-.3c.3-.2.4-.2.5,0,.1.3.7.2,1.7,0,.3-.1.7-.2.9-.2.6,0,1.3-.6,1.2-.9,0-.2,0-.3,0-.4,0,0,.2,0,.2.3,0,.2.2.3.3.3.2-.1.4.3.4.8s.4,1,1.1,1.9c.3.3.6.7.6.8s.1.2.3.1c.3-.1.8.3.7.6,0,.1,0,.3,0,.5.1.2,0,.3,0,.3s-.2,0,0,.2.3.2.3,0c.2-.3.5,0,.9.8.3.6.3,1,.3,2.1v1.3c-.1,0,.4.1.4.1.9.3,1.3.2,1.5-.1.1-.2.5-.5.8-.7.4-.3.6-.6.6-.8,0-.5,1.1,1.8,1.3,2.7,0,.4.2.9.3,1.1.1.3.2.6.2.9s.1.4.2.4.3.2.4.5c.3.7.2.8,0,.7-.2,0-.2,0-.2.2s.2.3.3.3,0,.2,0,.5c-.1.4-.2.5-.3.3,0-.1-.2-.2-.2,0,0,.3.3.6.6.5.4,0,.6.5.3.8s-.3.1-.4,0c-.2-.1-.3-.1-.3,0s.1.3.3.4c.3.2.4,1.3.2,2.3-.2.7,0,2.2.3,2,.3-.3.8-.2.8.2s0,.3.2.1c.1-.2.2-.2.2,0s.2.5.5.9c.5.6.5.7.3.8-.3.1-.3.2,0,.4s.3.2.3,0,0-.3.3,0c.1.2.2.7.2,1.1s0,.8.2.8.2.4.3.8c0,.4.3.9.5,1.2s.4.6.4.8.3.6,1.2,1.2c1.3.9,1.6,1.2,1.6,1.5,0,.1,0,.2,0,0,.2-.3.6-.1.5.2,0,.2,0,.3.2.2.2,0,.3,0,.3.2s0,.3.2.3.2-.2.1-.4,0-.3.1-.2c.2.1.3.1.3,0,.2-.3,0-.5-.6-.5-.3,0-.4,0-.2-.1.2,0,.3-.2.3-.3s0-.2-.1-.2c0,0-.2-.1-.2-.3,0-.2-.2-.7-.5-1-.4-.5-.5-.7-.5-1.8,0-.7,0-1.5-.2-1.7-.2-.5-1.5-2-1.8-2s-.3-.2-.4-.5c-.2-.4-.4-.5-.6-.4-.5.1-1-.3-1.2-1.3-.1-.5-.3-1-.4-1.1-.3-.2-.5-1.3-.3-1.3s.2-.4,0-.6c0,0-.1,0-.1.3,0,.4-.5.7-.7.3-.2-.3,0-1.7.3-2.9.2-.5.3-1.4.3-2,0-1,0-1,.5-1.1.4,0,.5,0,.5.6s0,.7.6.7c.7,0,1.3.3,1.3.6s.1.2.3.2.4.1.6.5c.2.3.3.7.3.8,0,.3.6.9.9.9s.1-.1,0-.2,0-.2,0,0c.2.2.2.2.2.7,0,.4.4.3.4-.1s0-.3.3-.1c.2.1.4.3.6.4.2,0,.3.2.1.3-.3.2-.2,2.1,0,2.1s.3-.2.4-.3c.1-.2.5-.5.9-.8.7-.4.9-.8,1-1.5,0-.1.1-.2.2-.1.3,0,1.2-.4,1.7-.9.2-.2.5-.4.6-.4.2,0,.4-.9.3-1.6,0-.3,0-.4,0-.4,0,0,.2,0,.2-.3s0-.4-.2-.4c0,0-.2-.5-.2-.9s-.2-1.1-.4-1.3c-.2-.3-.3-.6-.3-.8s-.2-.5-.5-.7c-.3-.3-.5-.6-.5-.7s-.1-.3-.3-.3c-.4-.1-2.4-2-2.4-2.3s-.3-.4-.6-.8c-.5-.5-.6-.7-.6-1.4s0-.8.2-.8c.1,0,.4-.4.5-.7s.3-.5.4-.5c0,0,.2,0,.2-.2s.2-.2.3-.2c.1,0,.2,0,.2-.2,0-.4,1.1-.8,1.6-.6.2,0,.5.1.7.1.3,0,.4,0,.3.2-.2.4.4,1.6.8,1.6.4,0,.5-.4.3-.8-.1-.3-.1-.3,0-.3s.2,0,.2-.2.1-.4.2-.4c.1,0,.3,0,.4,0,.1,0,.3,0,.4,0,.1,0,.2-.1.1-.2,0-.1,0-.1,0,0,.1,0,.2,0,.3,0,0-.1.3-.1.5,0,.6.2.8.2.7-.1,0-.1,0-.2,0-.2s.2,0,.2,0,0-.1.2,0c.3.2.5-.3.4-.8s0-.4.1,0,.8.7.8.3.3-.3.7-.5c.4-.2.6-.3.6-.2,0,0,0,.2,0,.2s.2,0,.2-.2,0-.2.1-.2c.6.1.9,0,1.1-.5.1-.3.3-.5.5-.6.2,0,.5-.3.7-.6.2-.3.4-.5.5-.5.3,0,.6-.6.5-.9,0-.1,0-.2,0-.1.2.1.6-.3.5-.4,0,0,0-.1.3-.1s.4-.1.4-.3,0-.2-.2-.2c-.2.1-.4-.6-.2-.8.1-.1.1-.3,0-.3,0,0,0-.1,0-.1s.2-.2.2-.3,0-.4.2-.4c.1,0,.2-.3.2-.5,0-.6.2-.9.4-.9s.3-.1.3-.2c0-.6,0-.9,0-1.2,0-.2,0-.3,0-.3.1,0,.2-.3.2-1,0-.6,0-1.1-.1-1.1s-.2,0-.2.2c0,0,0,.2,0,.3,0,.3-.3.4-.5.1-.2-.2-.4-.2-.7-.2-.6.2-.4-.3.3-.6.5-.2.6-.4.3-.6-.1,0-.1-.2,0-.2,0,0-.1-.2-.4-.2-.5-.1-.8-.5-.4-.7.1,0,.2,0,.2.1,0,.1,0,.2.2.3.1,0,.2,0,.2-.2,0-.2-.6-.7-1.4-1.3,0,0-.3-.3-.4-.6-.7-1.2-1.4-2-2.2-2.3-.8-.4-.8-.4-.7-.8,0-.2.3-.6.6-.9.5-.5.6-.7.3-.5s0-.1.3-.4c.4-.3.7-.5,1.1-.5s.5,0,.5-.4c0-.5-.1-.6-1.1-.7-.4,0-.9-.2-1.1-.3-.4-.2-1.3,0-1.2.1,0,0,0,.3-.2.4-.2.3-.3.3-.7.1-.2-.1-.4-.3-.4-.5,0-.5-.4-.8-1-.9-.8,0-1.4-.4-1.4-1s0-.4.3-.3c.5.2,1.1,0,1.2-.6,0-.3.3-.6.6-.8.3-.2.5-.4.5-.6,0-.4.4-.7.9-.6.7.1.9.5.6,1-.3.6-.3.8,0,1,.3.2.3.3,0,.5-.3.3-.2.5,0,.5s.4-.3.8-.7c.5-.6.8-.7,1.4-.8.4,0,.9,0,1.1,0,.2,0,.4.1.4.1,0,0,.3,0,.5.2.3.2.3.4.3,1.3s0,1.1.2.9c0-.1.2-.2.2,0,0,.2.8.6.9.4,0,0,.2,0,.4,0,.2.1.3.1.3,0s.2,0,.4.2c.4.3.6.7.3.7s-.2.3.3.8c.7.8.9,1,.8,1.1-.2.2-.2,1,0,1.2.1,0,.2.3.2.5,0,.4,0,.4.8.3.4,0,.8-.1.8-.2,0-.1.2-.2.4-.2s.3,0,.3-.2.1-.1.2,0c.3.1.9-.5.9-1,0-.7-1-2.4-1.8-3.2-.4-.4-.9-.9-1.1-1.1-.2-.2-.6-.6-1-.8-.3-.2-.7-.5-.9-.7-.3-.4-.2-.4.2-.7.3-.1.7-.5.9-.9.4-.6.4-.7.2-1.1-.3-.5-.2-1.4,0-1.3.1,0,.2-.1.2-.3s0-.3.2-.3c0,0,.2-.1.3-.4.1-.3.2-.4.2-.2,0,.2,0,.2.3,0,.2-.3.2-.3.3,0,0,.4,1.2.7,1.7.5s1.5-1.3,1.5-1.7.5-2.2.7-2.4c0-.1.2-.9.2-1.7s0-1.7.2-2c.1-.3,0-.6-.3-1.4-.2-.5-.5-1-.6-1.1-.1,0-.1-.2,0-.2s0-.2-.2-.4c-.6-.4-1.3-2.2-.8-2.2s1.7,1.1,1.8,1.4c0,.2.4.6.7.9s.7.9.9,1.4.6,1,.9,1.2.6.7.7,1c.1.3.3.6.3.6s.2.3.3.6c.1.3.4.8.7,1.1l.5.5v-.6c-.2-.6-.2-.6.2-.5.3,0,.6.3.8.4.2.3.3.3.3,0,0-.3-.6-1-.8-1s-.4-.2-.6-.4c-.2-.2-.6-.5-.8-.7-.2-.2-.5-.6-.7-1-.1-.4-.3-.9-.4-1-.2-.4.6-.4,1.4.1.7.5.8.5.8.3s-.3-.3-.5-.5c-.3-.2-.9-.6-1.3-1-.4-.4-1.4-1.3-2.2-2.1s-1.6-1.6-1.7-1.8c-.3-.6-1-1.3-1.2-1.3s-.4-.2-.6-.5c-.6-.7-.9-.9-1.2-.8-.2,0-.2.2.3.4q.5.3.2.7c-.3.3-.3.4,0,.5.4.3.9,1.1.8,1.2-.1.1-1-.8-1-1.1s-.5-.4-1.1-.7c-.6-.3-1.3-.6-1.5-.8-.6-.3-2.1-.4-1.8-.2.2.2,0,.9-.3.9s-.2-.2-.2-.3-.1-.3-.3-.3-.3-.2-.3-.3,0-.3-.2-.3-.2-.1-.1-.2c.1-.4-.5-.8-.8-.7-.2,0-.4.1-.5.1-.1,0-.2,0-.3.2-.1.2.4.2,1.2.2.2,0,.2,0,.1,0-.2,0-.2.2,0,.4.2.2.2.3.1.3s-.1.2,0,.4c0,.3,0,.2-.3-.2-.3-.5-.4-.6-1.2-.7-1.5-.2-1.5-.2-.8-1,.7-.9,1-1.5.8-1.5-.2,0,.5-1.7.7-1.7s0-.2,0-.4c-.1-.3-.1-.5,0-.5.1,0,.3-.3.3-.5s.1-.5.4-.5c.6-.2,3-.3,3.1,0,0,.1.3.2.4.2s.3,0,.3-.1c0,0,.5-.1,1.3,0,1.3,0,1.4,0,1.3-.3,0-.3,0-.3.2-.3.7.2,1.5.3,1.6.3.1,0,.4,0,.6,0,.3,0,.4.2.2.3-.2.3,0,.4.5.4,1.3,0,1.7,0,1.7-.2s.2-.1.5,0c.3,0,.7,0,1,0,.6-.2.4-.4-.7-.7-.7-.2-.8-.4-.5-1.2,0-.2.2-.7.2-1,0-.5,0-.6.7-.6.4,0,.8,0,1,0,.2,0,.5,0,.8,0,.3,0,.5,0,.5.2,0,.3.6,1,.9.8,0,0,.3,0,.5.3.2.3.3.3.3.2,0-.1,0-.2.1-.1,0,0,.2-.1.3-.4.2-.4.3-.6.7-.6.4,0,.7-.4.3-.4s-.4-.2-.6-.5c-.4-.4-.4-.5,0-.6.4-.2.9,0,.8.2-.1.2.8,1.3,1.1,1.3s.2.6-.2.9c-.3.2-.4.5-.3.7,0,.2,0,.5-.1.6-.1.1-.2.5,0,.7.1.6-.1,1.4-.5,1.4s-.3,0-.3.2-.2.2-.4.2q-.4,0,0,.4c.3.3.4.5.4.8-.1.7.7,1.9,2.7,3.6.5.4,1.2,1,1.5,1.4.4.4,1.1.9,1.5,1.3.4.3.9.8,1.2,1.1s.6.6.9.8l.5.4.3-.5c.3-.6.2-1.4-.2-1.7s-.3-.8,0-.9c.1,0,.4,0,.6,0,.3,0,.3,0-.4-.6-.6-.5-.7-.7-.6-1.1.1-.3.2-.4.7-.3.5.1.6,0,.5-.2,0-.2-.4-.5-.7-.7-1-.7-1.4-1.7-.5-1.3.2.1.5.1.5,0,.2-.2-.6-1-.9-1-.4,0-1.2-.8-1.2-1.1s-.6-.7-1.1-.5c-.6.2-1.3-.6-1.2-1.2,0-.4,0-.6-.3-.9-.4-.4-.4-.5,0-.5,0,0,.3,0,.5-.2.2-.1.3-.1.2,0,0,0,0,.2.2.3.3.1.5-.2.4-.4-.2-.4.4-.3.7,0,.4.4.7.4.7,0s1.6-.7,2.9-.1c1,.5,1.2.5.9,0-.1-.2,0-.4.2-.7s.5-.6.5-.8c0-.2.3-.5.6-.6.3,0,.5-.3.5-.3s.1-.2.2-.2.3-.1.5-.3c.2-.3.9-.3,2.2,0,.4,0,.5,0,.5-.2s-.2-.4-.4-.5c-.2,0-.5-.2-.6-.3s-.4-.3-.7-.4c-.7-.2-2.5-1.3-2.5-1.5s.2-.3.3-.5c.4-.5.2-.9-.7-1.1-.4-.1-.6-.3-.6-.4,0-.1.5,0,1.1.3.8.4,1.2.5,2.2.5,1,0,1.3,0,2,.4.5.3,1,.5,1.2.5s.8.2,1.4.3c1,.3,1.1.3,1.2,0,.2-.2.2-.2,0,0-.1.3.3.4.7.1.2-.1.2-.2-.1-.3-.2,0-.3-.2-.3-.3s0-.2,0-.2-.3-.2-.5-.3q-.3-.3.1-.4c.3,0,.5-.2.5-.3,0-.2,0-.2-.2-.1-.2,0-.2,0-.2-.1,0-.1-.1-.3-.4-.5-.8-.5-3.7-1.2-4.9-1.2s-1.3-.1-2-.4c-.9-.5-8.5-2.4-11-2.8s-2.2-.3-3-.3c-2.2-.1-4.1-.3-4.5-.4-.3,0-.3,0,.1.4.3.2.5.4.6.4s.4.2.8.4l.6.4h-.5c-.3,0-.6,0-.7,0s-.6-.2-1-.3c-.4,0-.8-.2-.9-.2,0,0,0-.1.3,0s.3,0,.3-.1,0-.2-.1-.2c0,0-.4,0-.7,0h-.6c0,0,.6-.2.6-.2h.6c0-.1-.5-.2-.5-.2-1.1-.1-1.2,0-1.2.2s-.2.3-.8.2c-1.4,0-4.5,0-4.7,0-.6,0-2-.2-2-.5s-.8-.7-2.2-1c-.9-.2-1.7-.3-3.8-.2s-2.7,0-3.2-.1c-.3-.1-.9-.3-1.4-.4-1.2-.1-1.6-.3-1.5-.4.3-.4-3.1-.9-3.6-.5-.2.1-.2.2-.2,0,.2-.3-.2-.4-3.4-.6-3.4-.3-3.3-.3-2.8,0l.4.2h-.6c-.5,0-.6,0-.5.3,0,.1.3.3.5.3s.4,0,.3.1c0,0,.1.2.4.3l.5.2h-.5c-.3-.2-.7-.2-.8-.2-.2,0-.8,0-1.4,0s-1.2,0-1.4.2c-.2,0-.7,0-1.2,0-.4,0-.9-.2-1.1-.2-.2,0-.3,0-.3-.2,0,0,0-.1-.1-.1s-.2.1-.1.3c.4,1.1.4,1.1-.2,1-.9-.2-2.2-.8-2.8-1.4-.3-.3-.7-.5-.8-.5s-.2-.1-.2-.2c0-.5-3.1-1.3-3.3-.9,0,0-.2,0-.3,0-.1,0-.4-.2-.6-.2-.2,0-.8-.1-1.2-.2-.5-.1-.8-.1-.8,0,0,.1-.1.2-.2,0,0,0-.2,0-.2,0s.2.3.3.4.3.3.3.3c0,0-1.4,0-3.1,0-.5,0-1.1,0-1.3,0-.3,0-.3,0-.1-.2.1,0,.2-.2,0-.3-.2-.1-4.3-.2-4.6,0-.3.2-1.4-.5-1.4-.8s-.2-.2-.8-.2-.8,0-.9.3c0,.2-.2.3-.4.2-.2,0-.4,0-.6,0-.2,0-.2.2,0,.3.2.2,0,.3-.5.4-.8.2-1.6.2-1.5,0,0-.1.3-.2.5-.2s.5-.1.5-.2c.2-.3.6-.5,1.6-1,.4-.2.8-.5.9-.6.2-.4-.6-1.1-1.1-1-.2,0-.3,0-.2,0,.2,0,.2-.1,0-.3-.4-.3-.6-.3-.5,0,.2.3-.1.2-.5-.1-.3-.2-.7-.3-2.4-.3-1.1,0-2.3,0-2.5.1-.3.1-.4,0-.3,0,.1-.3-.2-.8-.5-.8s-.2,0-.2.2c.2.3-.6.2-1,0-.5-.3-2.7-.5-3.3-.3ZM324.8,15.4c.2.1.1.2-.3.2s-.6,0-.6-.2c0-.2.5-.2.8,0ZM298.1,21.9c.4.5.2.6-.3.2-.2-.2-.5-.3-.6-.3s-.3,0-.3-.1c-.2-.3.9,0,1.2.3ZM404,24.2c0,.1,0,.1-.2,0-.3-.1-.4-.2-.1-.2s.2,0,.3.2ZM400.8,27.1c.1.2-.3.2-.6,0-.2-.1-.2-.2.1-.2s.4,0,.5.2ZM341.8,39.5c.7,1.6.8,1.9.6,2.2-.2.3-.2.3-.1,0,0-.2,0-.3,0-.3s-.2.2-.2.3.1.3.3.3.2,0,.1.1c-.1,0-.2.3-.3.5,0,.2-.4.5-.8.6-.6.2-.7.3-.7.7,0,.4,0,.5-.6.6-.5.2-.8.2-1.1,0-.4-.2-.4-.2.1-.2.5,0,1.1-.4,1.1-.7s.2-.3.4-.5.3-.5.3-.6c0-.1,0-.3.1-.4.6-.4.7-1.7.4-3-.2-.5.3-.3.6.2ZM309.1,51.7c0,0,0,.2-.2.3-.1,0-.3.2-.3.4s-.1.3-.3.3-.3.2-.3.5,0,.5-.3.3c-.3-.3-.3-1,0-1s.2,0,.1-.1c-.2-.2.4-.7.7-.7.2,0,.3,0,.4.1ZM310.1,51.7c-.1,0-.3,0-.4,0-.1,0,0,0,.2,0s.3,0,.2,0ZM312.5,51.9c.2.1.1.2-.3,0-.6-.1-.8-.2-.3-.2s.4,0,.6.2ZM313.5,51.9c0,.1-.2.2-.3.1s-.3,0-.3-.2.2-.1.3-.1.3,0,.3.2ZM293.1,52.2c0,0-.2,0-.3,0-.1,0,0-.1.1-.1.2,0,.3,0,.2,0ZM291.8,52.9c0,0,0,.2-.2.2s-.1,0,0,.2c0,.1.3.1.4,0,.2,0,.3,0,.4.3,0,.2.2.5.3.6.2.2.2.3,0,.7-.2.3-.3.5-.5.4-.2,0-.4-.1-.5-.1s-.2-.2-.2-.9,0-1-.2-1c-.1,0,0-.2,0-.3.2-.3.5-.3.5,0ZM291.2,53.8c.2.6-.1.7-.4.3-.3-.6-.3-.6,0-.6s.3.2.4.3ZM290.7,55.1c-.1.1-.4-.8-.4-1.1,0-.2.1,0,.3.4.1.4.2.7.2.7ZM286,58.9c.1.2.4.6.7.9.3.3.4.4.3.4-.1,0-.3,0-.5.2-.2.2-.3.3-.3.1,0-.1-.3-.2-.4-.2-.4,0-.8-.5-.8-1.1,0-.7.7-.9,1-.3ZM265,78.3c0,.1,0,.3-.2.3s-.1-.1,0-.3c0-.1.1-.3.2-.3s0,.1,0,.3ZM330.3,91.1c0,0,0,.2,0,.2,0,0-.1,0-.2-.2,0-.1,0-.2,0-.2s.2,0,.2.2ZM275.2,95.8c0,0,0,.2-.2.2s-.2,0-.2-.2c0,0,.1-.1.2-.1s.1,0,.2.1ZM354.8,104c0,0,0,.2,0,.3,0,0-.2,0-.2-.2,0-.3.1-.4.3-.1ZM358.3,105.5c.2.2.2.3.1.3s-.3-.2-.4-.3-.2-.3-.1-.3.2.2.4.3Z"/>
    <path class="st3" d="M348.9,15.1c0,.3.5.6.8.5.2,0,.4,0,.4.2s0,.3-.3.3-.3,0-.2.2c0,.1.3.1.5,0,.2,0,1,0,1.8,0,1.4.2,1.8.1,1.4-.2-.4-.3-2-.7-2.6-.7s-.7-.1-.9-.3c-.4-.3-.9-.3-.9-.1Z"/>
    <path class="st3" d="M386.6,53.5c0,.1,0,.2-.2.2,0,0-.2,0-.2,0s.1.2.2.1c.4-.2,1.5,1.5,1.4,2,0,.1,0,.3,0,.3.4.2.2.4-.3.3-.6-.2-.8,0-.4.4.2.3.3.3,0,.4-.2,0-.3.3-.3.6s0,.4,0,.3c.1-.3.8.2,1,.7.1.5.6.5.7.2,0-.1.2-.3.3-.3.5,0,.2-.3-.4-.6-.4-.2-.7-.4-.7-.4,0-.2.2-.2.5,0s.3.1.5,0c.3-.2.5-.2,1.3.2.5.2,1,.3,1.2.3.1,0,.2,0,0,0s0,.2,0,.2.2-.2.1-.4c-.2-.6,0-.9.6-.9.6,0,1.1-.3,1.1-.6s-.1-.2-.3,0c-.2,0-.3,0-.2-.7,0-.5.1-.7.3-.7.1,0,.2,0,.2,0s-.2-.2-.3-.3c-.3,0-.4,0-.4.6-.1.7-.4.7-.4,0s-.3-.5-.4,0c-.1.3-.1.3-1.3-.1-1.1-.4-1.9-.8-2.2-1.1-.2-.2-1.3-.8-1.5-.8s-.2.1-.2.3Z"/>
    <path class="st3" d="M389.1,59.3c0,.2,0,.2-.2.2-.1,0-.2,0,0,.3,0,.3,0,.5,0,.5-.1,0,0,.2.1.4.1.2.2.4.2.6,0,.2,0,.3.2.3s.3.2.4.3c.3.5.3,2.1,0,2.4-.2.3-.2.3-.2.8s-.2.4-.5.5c-.3.1-.5.3-.6.4-.2.2-.5-.3-.4-.6.1-.4-.1-.5-.5-.2s-.2.3,0,.6c.1.2.2.3.2.2,0-.1,0-.2,0-.2.1.1-.3,1-.5,1s-.2.6,0,.7.1.2,0,.3c-.1.2-.2.2-.4,0-.2-.2-.4-.2-1.1,0-.5.1-1,.2-1.2.2-.7,0-1,0-1,.2,0,.3-.8,1.2-1.2,1.4-.2,0-.3.3-.3.4s-.1.4-.2.5c-.1.1-.4.3-.6.5l-.4.3.5.5c.3.3.5.5.6.4.1,0,.1,0,0,0,0,0,.1.5.4.8s.5.8.5.9.2.3.4.3c.2,0,.4.2.4.3s.2,0,.4-.2c.3-.4.4-.6.3-1.5,0-.6,0-1.2,0-1.3,0-.4,0-.4.5,0,.6.6,1.1.7.9.3-.1-.3.2-.9.5-.9s.3,0,.3.2c0,.3.3.2.5-.3.1-.2.2-.5.1-.7,0-.1,0-.3,0-.3.1,0,.2,0,.2.1,0,.3.7.9,1.1,1,.3,0,.4,0,.5-.5,0-.3.3-.5.4-.5.4,0,.3-.5,0-.6-.2,0-.3-.2-.3-.3s.2-.1.3,0,.3.1.3.2.3.1.8.1c.7,0,.8,0,.8-.4v-.4s.3.5.3.5c.3.5.6.4.5-.2,0-.5.2-.5.6-.1.3.2.3.2.5,0,.1-.2.2-.4.2-.4,0-.1,0-.3,0-.4.1-.2.1-.3-.2-.6-.2-.2-.4-.5-.4-.7,0-.2,0-.5,0-.6s0-.4,0-.5c0-.2-.2-.4-.4-.7s-.3-.5-.3-.6.1-.2.3-.1c.2,0,.3,0,.3,0s0-.2-.2-.2-.2-.4-.2-.8c0-.8,0-.9-1.1-2-.6-.6-1.1-1.3-1.1-1.4s-.1-.2-.2-.2-.4,0-.5-.1c-.2,0-.3,0-.3.2ZM390,59.8s-.1.1-.3.2c-.1,0-.3,0-.3,0s.1-.2.3-.2.3,0,.3,0ZM386.9,69.3c.1.4,0,.5-.5.3-.4,0-.4-.2-.3-.3.3-.3.6-.3.8,0ZM385.6,69.8c-.1.3-.5.3-.7.1,0-.1.2-.3.6-.3,0,0,0,.1,0,.2ZM384.2,70.1c0,.1-.1,0-.1-.1,0-.2,0-.3,0-.2,0,0,0,.2,0,.3ZM384.7,70.2c-.1.5-.5.9-.8.9s-.1-.1,0-.2c0-.1-.2-.2-.5-.3-.3,0-.6-.1-.6-.2s.3-.1.8,0c.7.1.8,0,.9-.2.2-.5.3-.4.2.1Z"/>
    <path class="st3" d="M263.5,67.8c-.2.1-.6.3-.9.3s-.6,0-.6.2-.2.2-.4.2c-.5,0-.3.5.3.8.4.2.5.2,1-.1.3-.2.6-.4.6-.4s.1-.1,0-.2c0-.2,0-.3.3-.5.4-.2.5-.5.2-.5s-.3.1-.5.3Z"/>
    <path class="st3" d="M375.3,92.8c-.2.2-.1,2.7,0,3.3.1.3,0,.3-.1,0-.5-.7-.6-.1-.2,1.3.3.9.7,1.5,1.1,1.5s.2-.1.2-.3,0-.2.1-.2c0,0,0,.3-.1.5-.2.4-.1,1,.2.9,0,0,.2,0,.2,0,0,.3-.5.2-.6,0,0-.1-.2-.3-.4-.3s-.1.2.3.6c.3.4.6.9.8,1.2.4.7.6.8.9.5.3-.4.1-1.1-.3-1.5-.3-.3-.3-.3,0-.5.4-.2,1,0,.6.2-.2.1-.2.2,0,.4.2.3.3.3.4,0,.2-.3.2-.3.4,0,.1.2.2.2.3.2,0,0,0-.3,0-.5-.4-.6,0-.5.7.3.7.8.8,1,.4,1s-.1,0-.1-.1c0-.2-.4-.9-.6-.9-.2,0-.1.5.1.6.2,0,.3.3.3.8s0,.6.2.5c.1-.2.2-.2.5,0,.6.4.7.3.4-.3-.2-.3-.2-.6-.1-.6,0,0,.2-.3.2-.6,0-.4,0-.5-.4-.7-.5-.2-.7-.5-.2-.5s.3,0,.3.2c0,.2.2.2.5,0,.2-.1.2-.2,0-.5-.2-.4-.5-.5-.5-.1s0,.2-.5,0c-.3-.2-.6-.2-.7-.2,0,0-.2,0-.3-.2,0-.2-.3-.3-.8-.2-.6,0-.8,0-.8-.2-.1-.2,0-.3.7-.3.1,0,.2,0,.2,0,0-.2-.6-.5-.9-.5-.3,0-.4-.2-.3-.9,0-.3.2-.5.4-.5.4,0,.6-1.4.2-2-.1-.2-.3-.7-.3-1.1,0-.7,0-.7-.6-.6-.3,0-.6,0-.7,0-.2-.3-.9-.2-1.1,0Z"/>
    <path class="st3" d="M381.2,101.8c0,.2.2.5.5.7.3.2.5.5.4.6,0,.2-.1.2-.3,0-.3-.4-.5-.2-.3.5,0,.4.2.6.4.6s.2.2.2.5.1.5.5.7c.3.1.5.3.5.4s0,.4.1.6c0,.3,0,.4-.3.4s-.4,0-.4-.1,0-.2-.2-.2-.1.2,0,.5c0,.4,0,.5-.1.4-.1,0-.2,0-.3.2-.1.4-.2.4-.6,0-.3-.3-.4-.4-.7-.2-.2.1-.4.3-.4.5s-.2.3-.4.3-.5.1-.5.2c0,.1-.1.5-.2.7,0,.3-.1.6,0,.7.1.3.5.2.5-.1s.1-.4.3-.6q.3-.3.3,0c0,.4.2.5.4.2,0,0,.2-.1.3,0,.2,0,.3,0,.3-.3s0-.3.3-.2c.3.1.3.3.3,1.1,0,.8,0,.9.5,1.3.3.2.6.4.8.4s.4.2.4.4c0,.4.4.4.5,0,0-.1,0-.4.1-.5,0-.2,0-.5,0-.8-.3-.6-.3-.8,0-.8.2,0,.3,0,.3.3s.1.4.3.6c.2.3.2.3.3-.3,0-.3,0-.7.2-.7.1,0,.2-.3.2-.5,0-.6-.7-3-.9-2.9s-.1-.2,0-.5c.1-.6,0-.6-.2-.5-.2,0-.3,0-.4-.2-.1-.4-.4-.5-.4,0s-.1.3-.3.3-.2,0-.1-.2c0-.1.1-.4,0-.5-.2-.6-.2-.6.4-.6h.5c0,0-.3-.5-.3-.5-.2-.3-.3-.7-.3-.9,0-.6-.3-.9-1-.9-.6,0-.7,0-.7.3Z"/>
    <path class="st3" d="M378.1,102.6c0,.1,0,.2.2.3.1,0,.2.5.1,1,0,.9,0,1.1.4.7.2-.2.3-.2.3,0,0,.1.2.2.3.1.4-.1.3.3-.1.7-.3.2-.3.3-.1.6.1.2.3.3.4.3s.2.1.3.3c.2.4.4.3.6-.3.1-.3.3-.6.4-.6s.1,0,0,.2c-.1.2.4.2.8,0,.4-.2.3-.7-.2-.9-.3-.2-.4-.4-.4-.9s0-.6-.3-.6-.3,0-.3.2-.1.2-.3.2-.3-.1-.2-.4c0-.4,0-.4-.3-.4-.2,0-.6-.1-.8-.3-.5-.3-.7-.3-.7-.1ZM380.8,104.2c0,.1-.1,0-.1-.1,0-.2,0-.3,0-.2,0,0,0,.2,0,.3ZM380.6,105.4c0,0,0,0-.2,0s-.2-.3-.2-.4,0,0,.2,0,.2.3.2.4ZM380.9,105.4c0,.1-.1,0-.1-.1,0-.2,0-.3,0-.2,0,0,0,.2,0,.3ZM380.3,105.7c0,.1-.1,0-.1-.1,0-.2,0-.3,0-.2,0,0,0,.2,0,.3Z"/>
    <path class="st3" d="M375,103.8c0,.3-.3.8-.4,1.1-.2.3-.3.6-.2.6,0,.1,0,.2,0,.1-.2,0-1.5,1.3-1.7,1.7,0,.2,0,.5,0,.6s.2.1.2,0,.4-.6.8-1c.5-.5.8-.9.8-1,0-.3.7-1,1.1-1.1.5,0,.5-.4.1-.5-.2,0-.3-.2-.3-.5s0-.4.2-.3c.1,0,.2,0,.2,0s-.2-.2-.3-.1c-.2,0-.4.2-.4.6Z"/>
    <path class="st3" d="M324.2,105.7c0,.1,0,.2,0,.3.1,0,.2.2.2.4s0,.3-.3.2c-.1,0-.3,0-.3,0s0,.2.2.2c.2,0,.2.7,0,.9-.1.2.2,2.5.4,3.1.2.4.8.5,1.4.3.9-.4,1.1-.7,1.1-1.5s-.7-2.3-1.1-2.7c-.1-.1-.2-.3-.2-.4,0-.3-.9-1.1-1.1-1.1s-.3,0-.3.2Z"/>
    <path class="st3" d="M372.4,109.2c0,0-.3.4-.4.7-.1.4-.3.6-.4.6s-.2.2-.3.5c-.1.3-.4.6-.6.8-.3.2-.4.3-.2.5.2.2.1.2-.3.2s-.6.1-.7.3c-.2.1-.4.3-.6.3s-.3.1-.3.4-.3.7-.7,1.2c-.6.7-.8.8-1.4.9-.4,0-.8.2-.8.3,0,0-.2.1-.3,0-.1,0-.2.5-.2,1,0,0,0,.3-.2.5-.2.3-.2.3-.6.1-.2-.1-.5-.2-.7-.2-.2,0-.3,0-.4-.2-.2-.4-.6,0-.9.6-.3.6-.3,1.2,0,2.6.2,1.2.5,1.6.9,1.5.3,0,.3,0,.3.5,0,.3,0,.9.1,1.4.1.8.1.8,1.4.8.6,0,.7,0,.7.3,0,.4.3.6.4.4,0-.1.2-.1.4,0s.5,0,.7-.3c.2-.2.4-.3.4-.2s.1.2.3.2.3,0,.3.2.2.2.4.1c.6-.2.8,0,.8.6s.1.6,1,0l.7-.4.2.4c.2.4.2.4.4-.1.1-.3.1-.6,0-.8,0-.2,0-.6.2-.9.2-.4.2-.6.1-.7-.3-.1,0-.8.6-1.4.3-.3.6-.5.7-.5s.1-.4,0-.9c-.1-1.1.2-1.6,1-1.5.9,0,1-.3.1-1-.6-.5-.7-.7-.6-1,0-.2,0-.5-.2-.8-.3-.4-.3-.6-.2-.9.1-.3.1-.5,0-.6-.2-.2,0-.6.7-.7.6-.2.7-.4.2-.5-.5-.1-.6-.4,0-.4s1-.3,1-.5-.2-.2-.4-.3c-.5-.2-1-.6-1.2-.7,0,0-.2-.1-.3,0-.2,0-.2,0-.2-.3,0-.2-.1-.5-.4-.7-.2-.2-.4-.5-.3-.6.1-.3-.1-.5-.4-.3Z"/>
    <path class="st3" d="M344.4,111.8c-.3.5.2,1.3,2.2,3.2.6.5,1,1.1,1,1.3s.3.5.8.8c.4.3.7.6.7.7,0,.4.6,2.1.8,2.2.5.2,1.7,2.4,1.8,3.3,0,.4.5,1.2,1.3,1.9s.5.5.5.6.7.8,1.5,1.6c1.5,1.5,1.5,1.5,2.1,1.3.4-.1.6-.1.8,0,.2.2.2.3,0,.7-.2.5-.5.6-.5.3s-.2,0-.3.3c0,.2.1.3.6.3s1.2.4,1.1.7c0,0,.2.2.6.2.4,0,.8.2,1,.3.6.3.9.3,1,.2.2-.2,1.5,0,2.2.3.6.3,3.2.7,3.6.6.1,0,.3,0,.3.1s.1.2.2.1c.1,0,.4,0,.7.2.7.3.9.3.8-.1,0-.3,0-.3.3-.2.2,0,.3.2.3.5q0,.4.3,0c.1-.2.3-.3.3-.1s.3.2.6.3c.3,0,.8.2,1,.3.2,0,.7,0,1.2,0,.5-.1.7-.2.6-.2-.1,0-.2,0-.1-.1s.2,0,.3,0c.3.3.9.2,1.2,0,.2-.2.3-.2.4,0,.4.3,2.8.3,3.8,0,.5-.2,1-.3,1.2-.2.1,0,.3,0,.4-.1.1,0,.3-.1.4,0,.2.1,1.3,0,1.5-.2.3-.3-.2-.3-1.7-.2-.5,0-.9,0-1-.1,0-.1-.3,0-.5.3-.2.3-.4.4-.5.4-.2-.1-1.2-.3-2.2-.3-.6,0-.9,0-1,.2-.1.2-.2.2-.2,0s-.1-.2-.3-.1c-.2,0-.4,0-.4,0,0,0,0-.2,0-.2s.1,0,0-.2c0-.1-.1-.1-.2,0-.1.2-.8.2-1,0s-.9-.1-1,.2-.2.2-.3.2c-.1,0-.2,0-.3.1,0,.1-.2.1-.4-.1-.4-.4-.6-.3-.9.2,0,.2-.3.4-.4.4-.3,0-.3-.3,0-.4.3-.2-.5-.6-.8-.5-.4.1-.8,0-.8-.3s0-.3-1.2-.3c-.6,0-.8,0-.8-.3,0-.2,0-.3.3-.2.5,0,1.4-.2,1.3-.5,0-.1-.5-.2-1.3-.1-.8,0-1.4,0-1.7-.2s-.5-.2-.6-.2c0,0-.2,0-.3-.2-.2-.3-.2-.3-.5.1-.2.3-.4.4-.7.4-.3,0-.8,0-1.1,0-.5,0-.7-.1-.8-.4-.1-.2-.3-.4-.6-.4s-.6-.2-.9-.3c-.3-.2-.5-.2-.6-.1,0,.1-.2.1-.6,0-.3,0-.6-.1-.7,0,0,0-.1-.1,0-.5,0-.3.1-1.1.2-1.8,0-1.7.2-2.1.6-1.8.4.2,1,0,1-.4s0-.1-.2,0c-.1.2-.2.2-.3,0,0-.1,0-.3,0-.3s0-.2-.2-.2c-.3,0-.4-.2-.6-1-.1-.6-.5-.6-1,0-.5.4-.4.6.1.6s.3,0,.3.2-.2.2-.4,0c-.2,0-.4-.1-.5-.1s-.1,0-.1-.2-.1-.3-.3-.4c-.1-.2-.3-.5-.3-.8,0-.4,0-.5-.4-.5s-.5-.1-.7-.2c-.3-.2-.3-.3,0-.5.3-.4.4-1,.1-1.3-.1-.1-.2-.3-.2-.5,0-.2,0-.3-.2-.2-.2,0-.3,0-.3-.1s-.2-.3-.4-.4c-.2,0-.4-.2-.4-.3,0-.2,0-.3-.7-.3-.1,0-.3-.2-.3-.4s-.1-.4-.3-.4c-.2,0-.4-.1-.5-.2,0,0-.3-.1-.5,0-.3,0-.4,0-.5-.3,0-.2-.2-.4-.3-.4s-.2,0-.2-.2c0-.2-.3-.5-1-1-.3-.2-.7-.5-.8-.6s-.3-.2-.4-.2-.2-.1-.2-.3,0-.4-.2-.5c-.1-.1-.3-.4-.5-.6-.3-.3-.5-.4-1.2-.4s-1-.1-1.2-.3c-.4-.4-.8-.4-.9-.2ZM373.7,132.6s-.1,0-.3,0-.3,0-.3-.2.1-.1.3,0c.1,0,.3.1.3.2Z"/>
    <path class="st3" d="M315.2,114.3c0,.3,0,.5.2.6,0,0,.1.2,0,.3,0,.1,0,.3,0,.4.1,0,.2.2.2.3s0,.1-.2,0c-.2-.2-.2-.2,0,0,0,.2.1.5.1.6,0,.4.4.4.7,0,.2-.2.2-.3-.1-.4-.2,0-.3-.2-.3-.3.2-.3-.1-1.3-.3-1.2-.1,0-.2,0-.1-.4,0-.3,0-.5,0-.5s-.1.2-.1.5ZM316,116.5c0,0,0,.2-.2.2s-.2,0-.2-.2,0-.2.2-.2.2,0,.2.2Z"/>
    <path class="st3" d="M386.6,117.1c-.1.2-.2.7-.3,1.1,0,.4,0,.7-.2.7s0,0,0,.2c.2.1.2.2,0,.3s-.2.3-.1.4c0,.4.1.4.2,0,.1-.3.1-.2.1.2,0,.4,0,.5-.3.4-.4-.1-.6.1-.4.5.1.4,1.1.6,1.1.2,0-.2,0-.2.2,0,.3.6.4.1.1-.5-.4-.9-.3-1.3.4-1s.8.1.3-.4c-.4-.4-.4-.4,0-.6.3-.2.5-1.1.2-1.1s-.3.1-.5.3c-.4.3-.4.2-.4-.4s-.2-.9-.5-.3Z"/>
    <path class="st3" d="M382.4,118.1c-.4.4-.8.7-.9.6-.2,0-.9-.1-1.6-.2-.7,0-1.3-.2-1.3-.2,0-.2-.6-.3-.8-.2,0,0-.2.2-.3.4s-.2.3-.3.2c-.2-.2-.8.5-.8,1s0,.3-.1.3-.1.2,0,.5c0,.3,0,.7-.2.9-.2.2-.3.6-.3.9,0,.6-.4,1.6-.7,1.6s-.1.2,0,.5c0,.3,0,.6,0,.7,0,.2.1.3.4.2.3,0,.4,0,.4.6,0,.4,0,1-.2,1.5-.2,1-.1,1.2.7,1,.5-.1.6-.2.6-.7,0-2.7.1-3.4.4-3.5.5-.2.6,0,.3.6-.2.5-.2.6.3,1,.4.3.4.5.4.8-.1.4,0,.8.4.8s.3-.2.5-.3c.2-.2.4-.3.5-.3s.1.1,0,.3c-.4.5-.5,1-.1,1.3.3.3.3.3.7,0,.2-.2.3-.4.3-.6,0-.2,0-.3,0-.4,0,0,.1-.4.1-.7,0-.5,0-.6-.3-.6-.4,0-.8-.4-.7-.8,0-.2-.2-.7-.4-1.2-.4-.7-.5-.9-.3-1.1.1-.1.3-.2.4-.2s.4-.2.6-.5c.3-.4.5-.5.8-.4.3,0,.4,0,.4-.3,0-.5-.4-.6-.9-.3-.2.1-.7.2-1,.2-.4,0-.7.2-.9.4-.3.4-.8.4-.8,0s-.2-.3-.4-.5-.3-.5-.3-.9c.2-.9.3-.9,2.5-.8,2.9.2,3.4.2,3.4-.2s.2-.4.4-.7c.3-.3.4-.7.3-.8-.2-.4-.2-.4-1,.4Z"/>
    <path class="st3" d="M387.7,124.1c-.3,0-.6.2-.6.3-.1.2-.1.2-.1,0s-.1-.1-.3,0c-.4.3-.4.6,0,.5.2,0,.3,0,.3.3s0,.4.6.2c.3-.1.6-.3.6-.4,0-.2,0-.2.3,0s.5.1.7,0c.2,0,.6,0,.9.3.7.4.8.4.8,0,0-.9-1.3-1.4-3-1.2Z"/>
    <path class="st3" d="M385,132.2s-.5.1-1.1.2c-.7,0-1.1.2-1.3.4-.1.2-.6.5-1.1.7-.5.2-.8.5-.9.7,0,.2-.2.5-.4.7-.2.2-.2.3,0,.4.4.2,1.5-.3,2.1-.9.3-.4.9-.7,1.3-.9.9-.3,2-1,1.9-1.2-.1-.2-.5-.2-.6-.1Z"/>
  </g>
  <g>
    <path class="st1" d="M392,120.8c-.3.2-.7.4-.8.5-.1.1-.2.1-.3,0-.1-.2-.8-.2-.8,0,0,.3.7,1.1,1,1.1.5,0,.8.2.8.4,0,.5.6.7,1.6.7.7,0,1,0,.9.1,0,.1-.3.2-.5.1-.2,0-.5,0-.6.2s-.4.2-.5.2c-.3-.1-.8,0-.8.3s.2.2.4.3.4.3.4.4,0,.3.2.3.1,0,0,.2c-.2.3,0,.9.3.7.1,0,.3,0,.4.1.1.1.3.2.4,0,0,0,0-.2,0-.2-.1,0-.2-.2,0-.4.1-.2.2-.2.8,0,.3.2.8.4.9.6.2.2.5.3.8.3.7,0,3.2,1.3,3.2,1.5,0,0,0,.3.2.5.1.2.2.5.2.6s0,.3.1.3.1.3.1.6c0,.5,0,.6-.3.6s-1.2,1.1-1.2,1.5,1.5.2,1.7,0c0,0,.4-.2.7-.2.5,0,.6,0,1.2.7.6.8.6.8,1.6.8.5,0,1,0,1.1,0,0,0,.2,0,.4,0,.3-.1.3-.1.2.2,0,.2-.1.4-.2.5,0,.1,0,.2,0,.2.2,0,.4-.4.4-.9s0-.3.2-.3.2-.1.2-.3,0-.2.2-.2.2,0,.2-.3c0-.7,1.2-1.6,1.6-1.2,0,0,.4.2.7.3.4.1.7.3.8.6,0,.2.2.4.3.4s.1.1.1.3.1.4.3.5.2.3.2.4,0,.2.2.2.3.2.4.4c0,.3.3.5.9.6.4.1,1,.2,1.3.2.3,0,.7.1.9.2.4.3,1.7.3,1.8,0,0-.1,0-.2,0-.2,0,0-.3,0-.4,0-.2,0-.2,0,0-.2.2-.1,0-.2-.5-.4-.6-.2-.9-.5-.5-.5s.1-.3-.3-.4c-.4,0-.5-.1-.4-.5,0-.4,0-.4-.4-.3-.5.1-.5,0-.7-.6-.1-.4-.5-1-.9-1.3-.4-.3-.6-.8-.6-1,0-.3.1-.4.6-.4s.6,0,.6-.3c0-.4-.6-.9-.9-1-.2,0-.4-.2-.5-.3-.2-.1-.5-.3-.7-.4-.4,0-.4-.2-.4-.5,0-.2.1-.4.2-.4s.2-.1.2-.3c0-.2,0-.2-.3,0-.2.2-.3.2-.6-.1-.2-.2-.3-.4-.3-.5s0-.2-.2,0c0,0-.3,0-.4-.2-.2-.1-.4-.3-.6-.3s-.4-.1-.5-.3c-.1-.1-.6-.4-1.2-.5-.5-.2-1.3-.5-1.6-.7-.4-.2-.8-.4-.9-.3-.1,0-.2,0-.2,0s-.3-.2-.7-.3c-.4,0-1.2-.4-1.8-.7-1.1-.6-1.2-.6-1.7-.4-.3.1-.6.4-.6.5,0,.2-.3.3-.5.3s-.4,0-.4.1-.1.3-.3.5c-.2.2-.4.5-.6.7-.1.2-.4.4-.6.4-.3,0-.4-.2-.6-.8-.1-.4-.3-.7-.3-.6-.1.3-.4,0-.4-.4s0-.3.2-.1c.2.2.2.2,0,0,0-.2-.1-.6-.2-1,0-.8-.2-1-.5-.9-.1,0-.5,0-.8-.3-.7-.4-1-.4-1.8,0Z"/>
    <path class="st1" d="M404.6,135.9c0,.1-.2.4-.3.6s-.3.7-.5,1c-.2.3-.4.9-.4,1.3s-.1.8-.2.9c0,.1-.2.7-.3,1.3-.1,1.3-.7,3.2-1.1,3.6-.2.2-.3.4-.3.5,0,.3-.5.7-.9.7s-.7-.3-1.1-.7-.8-.7-1-.7-.4-.2-.5-.4-.3-.4-.4-.4-.3-.2-.3-.4c-.1-.5-.4-.6-.4-.2s-.3,0-.8-.5l-.8-.8.3-.4c.2-.2.4-.5.5-.7s.2-.3.3-.3c.1,0,.1.2,0,.3,0,.2.5.5.8.3.1,0,0-.9-.1-1.1s-.2,0-.4.1c-.2.2-.3.2-.3-.2s0-.4.2-.4c.1,0,.4-.3.6-.7.3-.6.4-.8.2-.9-.1,0-.2-.3-.2-.4,0-.1,0-.2-.1-.2s-.2,0-.2.2-.2.2-.4.2c-.3,0-.3,0-.3-.2.1-.3,0-.3-.6.1-.4.3-.6.3-.7.2s-.4-.2-.6-.2-.5-.1-.6-.2c-.1-.1-.3-.2-.4-.2-.1,0-.2,0-.2-.3,0-.3,0-.3-.2,0-.2.2-.2.2-.4,0-.1-.2-.2-.3-.3-.2,0,0-.2,0-.2-.2,0-.3,0-.3-.4-.2-.2,0-.4.1-.4,0s0,0-.2,0c-.2.2.1.7.4.6s.5.4.2.7c-.2.2-.4.2-1.1.2-.5,0-.9,0-.9,0s0,.2-.2.2c-.3,0-1.1,1-1.1,1.3,0,.1,0,.3-.3.4-.2.1-.4.3-.4.4s-.2.4-.4.6c-.3.3-.3.4-.2.5.4.3,0,.5-.6.4-.3,0-.7,0-.8.1-.2.2-.2.2-.1,0,0-.2,0-.3-.2-.4-.2,0-.3-.2-.3-.3s-.2-.4-.5-.6c-.5-.3-.6-.4-.7-.1-.1.2-.2.3-.3.2-.2-.2-1.2-.3-1.2,0s0,.2.2.2.2.2.2.4c0,.4,0,.4-.3,0-.2-.3-.3-.3-.3,0s0,.3-.3.2c-.3,0-.3,0-.3.4s0,.4-.1.4c-.2-.2-1,.7-1,1.2,0,.3,0,.5,0,.6,0,0-.3,0-.6,0-.4,0-.6,0-.5,0,0,0,0,.2,0,.3-.1,0-.1.2,0,.4.1.2.1.3,0,.3s-.2.1-.2.3c0,.2-.1,0-.2-.4,0-.4-.2-.7-.2-.7s-.4.3-.7.6c-.5.5-.6.8-.6,1.2s-.2.8-.5,1.2c-.3.3-.7.8-.9,1.1-.4.6-1.2,1-2.2,1s-.9.1-1.1.3c-.2.2-.5.3-.7.3s-.5.1-.6.3c-.2.2-.4.2-.9.2-.4,0-.7,0-.8,0,0,0-.2.2-.3.2s-.5.2-.8.5c-.3.3-.8.6-1.2.8-.3.2-.7.5-.8.7l-.2.4v-.5c-.2-.4-.2-.5-.4-.3-.4.6-.6,1.1-.6,1.6s-.2.8-.4,1.1c-.5.7-.5.9-.1,2.2.4,1.3.3,1.9-.1,1l-.3-.7-.2.4-.2.4-.2-.4c-.2-.4-.2-.3-.1.3,0,.4.2,1,.4,1.2.2.3.3.9.3,1.4,0,.5.1,1.1.2,1.4,0,.3.1.7.1,1,0,.3,0,1.4,0,2.5,0,1.4-.1,2.1-.3,2.1-.1,0-.2.3-.2.5,0,.5-.5,1.1-.9,1.1s-.4.2-.5.4c-.2.6-.2.7.2.7s.4.1.4.3c.1.4.7.7,1.7.8.8,0,1.7-.1,1.7-.4s.5-.4,1-.4c.2,0,.4-.2.6-.4.4-.4,1.6-.6,3.6-.5h1.5c0,0,.7-.7.7-.7.4-.4.9-.7,1-.7s.3,0,.4-.2.3-.2.6-.3c.3,0,.6-.2.8-.4.2-.2.5-.2.8-.2.6.1,2.9-.4,3.3-.7.1,0,.9-.2,1.7-.3,1.5-.1,1.6-.1,2,.3.2.2.5.3.6.3.1,0,.5.1.8.3.4.2.7.4.8.4s.2,0,0,.2c-.3.3-.3.8,0,.8s.6,1.5.2,1.8c-.2.2-.2.2.3.7q.5.5.6.1c0-.4,1.2-1.5,1.5-1.5s.6-.3,1-.8.8-.7.9-.7c0,0,0,.2-.1.2-.1,0-.2.2-.2.4s-.2.4-.4.6c-.2.2-.5.5-.7.9s-.4.7-.6.7c-.2,0-.5.3-.6.5-.2.3-.2.3.2.2.2,0,.6-.1.7-.1s.5-.3.6-.6c.2-.3.4-.6.5-.6.3,0,.1.8-.4,1.3s-.5.7.2.6c.4,0,.5,0,.7.5.2.5.2.6-.1,1.2-.3.5-.3.7-.2,1.2.1.3.4.6.6.7.2,0,.4.2.4.3s.3.2.7.2.7,0,.8.2c0,.1.3.3.5.4.3.2.5.1,1.2-.2.4-.2.8-.4.9-.3s.4.3.7.4c.3.2.6.4.6.6,0,.2,0,.2.4,0,1-.9,2.8-1.8,3.7-1.8s2.1-.5,2.1-1.1c0-.1.2-.4.4-.7s.4-.5.4-.7.3-.5.8-.9,1.1-1.2,1.6-1.7c1-1.3,1.9-2.1,2.6-2.5.3-.2.6-.4.6-.5s.2-.4.5-.7c.8-.8,1.1-1.2,1.1-1.4s.2-.5.4-.8c1-1.5,1.5-2.5,1.6-3,0-.3.2-.8.3-1.2.3-.7.2-1.1,0-.4,0,.2-.2.3-.2.2,0-.2.3-1.4.4-1.8,0-.1,0-.3,0-.4,0,0,.1-.4.3-.7.2-.3.3-.7.3-.9,0-.2,0-.3-.1,0-.3.7-.9.8-.9.2s0-.3-.2-.3-.2-.2-.2-.5c0-.3-.2-.5-.4-.5s-.3-.2-.3-.4c0-.2-.2-.4-.3-.3-.2,0-.2-.2-.1-.9.1-.9.1-1-.2-.9-.2,0-.4,0-.4-.2,0-.2-.2-.2-.4,0s-.3.1-.2-.5c0-.4,0-.9-.2-1.1-.4-.5-.4-.6,0-.6s.2-.1.2-.4c0-.2-.2-.4-.3-.3-.3,0-1.3-.7-1.5-1,0-.2-.2-.3-.3-.2-.1,0-.2,0-.2-.1s0-.2-.2-.1c-.3.2-.6-.4-.5-.8,0-.2,0-.5,0-.5,0,0,0-.2,0-.3.2-.3,0-1.7-.2-2-.3-.3-.3-2.1,0-2.5,0-.1,0-.3-.3-.5-.4-.3-.4-.3-.2-.5.2-.2.2-.2,0-.4s-.3-.2-.5-.2c-.2,0-.2,0,0,.2q.3.2,0,.2c-.2,0-.4,0-.5,0,0,0-.1,0-.1.2s-.1.2-.3.2-.2-.2-.2-.8c0-.6.1-.8.3-.8.2,0,.2,0,.2-.6,0-.3,0-.7,0-.7.1-.4.1-.7,0-.7s-.2.3-.2,1.2c0,.3,0,.5-.1.5-.1,0-.2-.2-.1-.4,0-.2,0-.4-.1-.5-.2-.2-.1-.6.1-.8.1,0,0-.1-.1,0-.3,0-.7-.4-.5-.6,0,0,0-.3,0-.6-.1-.5-.4-.7-.7-.3ZM364.5,158.7c0,.1,0,.3,0,.3s-.1-.1-.2-.3c0-.1,0-.3,0-.3s.2.1.2.3ZM396.8,176c-.1.2-.3.2-.3.2-.1-.1.1-.4.3-.4s.1.1,0,.3Z"/>
    <path class="st1" d="M394.3,179.8c-.2.4-.5,1-.5,1.4,0,.4-.2.8-.3,1-.1.2-.2.7-.1,1,0,.6,0,.7.5.8.5.1,1.6-.3,1.6-.6s0-.1.2,0c.2.1.3,0,.7-.3.3-.3.5-.6.5-.7s.1-.3.3-.3.4-.2.5-.4c0-.2.3-.6.5-1,.5-.8.3-1-.8-.7-1.5.4-1.5.4-1.9,0-.2-.2-.4-.4-.5-.4,0,0-.2-.2-.1-.3,0-.4,0-.2-.5.4Z"/>
  </g>
  <g>
    <path class="st4" d="M271.5,7.1c0,0-.4.2-.8.3-.7.1-2.2.7-2.3,1,0,0-.2,0-.3,0-.1,0-.2,0-.2,0s.1.2.2.2c.1,0,.4,0,.6,0,.2,0,.6-.1.7-.3.2-.2.3-.3.3-.2,0,.1,0,.2.3.3.5.1.7.1.5,0,0-.1,0-.1.2,0,.2,0,.2.2.2.3,0,.1.3.1,1.3,0,.8,0,1.3,0,1.1,0-.3.1-.2.2.4.2.5,0,.7,0,.8-.2,0-.1.2-.3.4-.3.4,0,.9-.2.9-.4s-.2-.2-.3-.2-.4,0-.4-.2c0-.1-1.2-.3-2.2-.3-.3,0-.3,0-.1-.3.2-.2.1-.3-.4-.3s-.6,0-.7.2ZM273.5,8c-.2.2-.5.3-.7.3h-.4s.4-.2.4-.2c.2,0,.3-.2.2-.2s0-.1.2-.2c.7-.2.7-.2.4.2ZM269.2,8.2c0,0,0,.1-.2.2,0,0-.2,0-.2,0s0-.2.2-.2.2,0,.2,0Z"/>
    <path class="st4" d="M265.7,7.9c-.3.1-.5.3-.4.3s0,.1,0,.1-.2,0-.2-.2c0-.2-1.2-.2-2.5,0-.8.1-.6.2.5.2s.5,0,.5.2c0,0,0,.1,0,.2.9.2,2,.2,1.9,0,0-.1,0-.2.3-.2s.3,0,.2.2c-.3.2.5.4,1.4.4s.5,0,.3-.2c-.1-.1-.5-.1-.8,0-.5.1-.5,0-.3-.2.1-.2.4-.3.6-.3s.3,0,.2-.2c0-.1-.3-.2-.4-.2s-.3,0-.3-.2c0-.2-.1-.2-.8,0Z"/>
    <path class="st4" d="M240.4,8.6c-.2.2-.4.2-.9.1-.5,0-.7,0-.8.2,0,.2,0,.3.1.4s.2.2,0,.2-.3-.1-.4-.3c-.1-.2-.4-.2-.6-.2-.2,0-.4,0-.5,0,0,0-.5,0-1.1,0-.5,0-1.2,0-1.4,0-.4,0-.4,0-.4.3,0,.2.3.5.5.7l.4.4-.5-.3c-.3-.2-.5-.2-.6-.1,0,0,.2.3.6.5.8.4.9.4.6,0-.4-.5.9.3,1.3.8.2.3.5.5.7.5.2,0,.6.2,1,.3,1,.5,1.4.4,1.5-.2,0-.3.2-.5.3-.5.3,0,1.2-.8,1-.8s0,0,.2-.2c.3-.2.9,0,1.4.4.4.3.4.3,0,.5-.3.2-.2.2.6.2.3,0,.6,0,.7.2.1.2.9,0,1.2-.2,0,0,.3-.2.5-.2s.3,0,.2-.2c0-.1-.3-.2-.6-.2s-.5-.1-.6-.3c0-.2-.2-.3-.5-.2-.2,0-.4,0-.4,0,0-.2-1.5-.9-1.8-.7-.2,0-.2,0,0-.1s.5-.2,1.3,0c1.8.2,3.4.1,3.5-.2,0-.1.2-.2.4-.2.4,0,.6-.3.2-.5-.5-.3-2.6-.4-2.7-.1,0,.1-.1.1-.2,0-.2-.3-.9-.3-.9,0s0,.2-.3,0c-.4-.3-3-.3-3.3,0ZM241.9,9.5c0,.2,0,.2-.2.2-.2,0-.3-.2-.4-.3,0-.2,0-.2.2-.2.2,0,.3.2.4.3ZM238.5,10.6c0,0-.1,0-.3,0s-.3-.1-.3-.2c0-.2,0-.2.3,0,.2,0,.3.2.3.2ZM237.3,11c0,0,0,.2-.2.2s-.2,0-.2-.2,0-.2.2-.2.2,0,.2.2Z"/>
    <path class="st4" d="M282.3,12c-.2,0-.6.2-.8.3-.3.2-1.1.3-2.5.4-2,.1-2.8.3-3,.5-.2.2-1.5.7-1.7.7-.2,0-.3,0-.3.3,0,.5-.2,1-.7,1.3l-.5.3.4.2c.3.1.3.2.2.2-.2,0-.5.2-.8.4-.4.3-.4.4-.2.4.4,0,.4.3-.1.5-.2,0-.4.3-.4.4,0,.4.5.7.8.6.2,0,.3,0,.2,0,0,0,.1.2.4.3.4.1.5.1.6,0,.1-.2.1-.2.1,0,0,.4.4.5,1.7.6,2,.2,2.3.2,2.3-.1,0-.2,0-.2-.2-.1-.2,0-.3,0-.2,0,0,0-.2-.2-.6-.4-.4-.1-.7-.3-.7-.3s-.2-.2-.5-.4c-.5-.3-.7-1.2-.4-1.2s.2,0,.2-.2c0-.2,1.8-2,2-2s.3-.1.5-.3c.4-.4,1.1-.6,3.3-1.1,3-.6,3.5-1,2.2-1.4-.6-.2-.7-.2-1.4,0ZM273.6,15.7c0,0-.2,0-.3,0-.1,0,0-.1.1-.1.2,0,.3,0,.2,0Z"/>
    <path class="st4" d="M248.3,18.8c0,.1-.2.1-.4,0-.1,0-.4,0-.7.3s-.4.3-.3.2c0-.1,0-.2-.4-.2-.7,0-1.3.2-1.2.3s-.7.4-1.3.4c-.3,0-.4,0-.3.2.1.2,0,.2-.1,0-.4-.4-1.5-.2-1.5.2s0,.3-.6.3c-.7,0-.9.2-.8.6,0,.2,0,.4,0,.5-.1,0-.1,0,0-.1.1-.2,0-.2-.3-.1-.4.1-.5,0-.3-.1.3-.4,0-.4-.9,0-.6.3-.7.4-.7.6s0,.2,0,.2c-.2-.1-1.4.3-1.4.6s0,.2.8,0c.3-.1.6-.2.6-.2s.2,0,.5,0c.3,0,.5,0,.5,0s-.1.2-.3.2-.3.2-.3.3-.3.6-.8.9c-.5.3-.8.7-.8.8s-.2.2-.3.2c-.2,0-.3.2-.3.5,0,.6-.6,1.1-1.1,1.1s-.4,0-.2.2.2.2,0,.3c-.1,0-.5.4-.9.7-.6.6-.7.6-1,.5-.3-.2-.4-.2-.5,0-.1.2-.3.2-.4.2-.2,0-.2,0-.1.2s0,.3-.4.4c-.3,0-.5.2-.5.3s-.2.2-.4.3c-.2,0-.4.2-.4.3s0,.1-.1,0c0,0-.4,0-.7.2-.5.3-.5.4-.5,1.6,0,1.1,0,1.3.2,1.2.3-.1.4.2.1.3-.2.1-.2,1.1,0,1.1s.2.2.2.3.3.5.7.8c.9.6,1.8.6,2.6,0,.3-.2.9-.6,1.3-.8.4-.2.7-.5.7-.6,0-.2,0-.2.1,0,0,.1.2.3.3.4.1,0,.2.3.2.6s.2.6.3.9.3.5.3.6.3.4.6.8.5.6.4.7c-.1,0-.2.2-.2.3s0,.2-.1.2c-.3,0-1.2.2-1.2.4,0,.2-1,.4-1.1.3,0,0,0-.2.1-.4q.2-.3.2,0c0,.2,0,.3.2.2.1,0,.1-.2,0-.3s0-.2,0-.3c.3-.2.2-.6-.2-.6s-.5-.4-.2-.6c.2-.1.2-1.1,0-1.1s-.1,0-.1.2-.1.2-.2.2-.3.1-.4.3-.4.3-.7.3c-.9,0-1.5,1.8-.9,2.5.2.3.3.5,0,.6,0,0-.1.2,0,.4,0,.2.2.2.3,0,.2-.2.2-.1.2,0s0,.3-.2.3-.1,0,0,.3c.4.4,0,.8-.9.7-.4,0-.8,0-1,.1-.2.2-.6.2-.9.2-.8-.1-1.5.3-1.7,1-.2.9-1.3,1.9-2.6,2.3-.7.2-.9.3-1,.9-.1.5-.2.6-.8.8-.4.1-.8.3-.9.5-.2.4-.8.4-1.2.1-.1-.1-.4-.3-.7-.4-.4-.1-.5,0-.4.3.4,1.2.3,1.2-.4,1.2s-.7,0-.8-.1c-.2-.1-1.5,0-1.9.2-.3.2-.4,1,0,1s.2,0,.2.2.1.1.2,0c.4-.2,1.1.2,1,.5,0,.1,0,.3.1.3s.1,0,0-.2c-.2-.3.4-.2.8.2.2.2.3.3.2.3s-.1,0,0,.3c.2.1.3.3.3.4s.1.2.3.2.2,0,.2.2c0,0,0,.2,0,.2s.2.1.2.2,0,.3,0,.4c0,.2-.2,1.9-.4,2.6-.2.6-.7.9-1.2.8-.3,0-2.6-.3-4.7-.3-.5,0-.9,0-1-.2-.2-.2-.9-.1-1.2.2-.2.2-.4.3-.6.3-.5,0-.7.4-.5.9,0,.2.2.9.2,1.6,0,1.2-.3,2.7-.8,3.1-.1.1-.2.2-.2.2s0,.2,0,.5c0,.3,0,.5,0,.5s.2.1.2.3.1.2.2.2c.2,0,.3.8,0,1.6-.1.4,0,.4.6.4.4,0,.9,0,1.1-.1.6-.2,1.1,0,1.3.8.3.7.9,1.1,1.3.6.4-.5,1.4-.8,2.4-.8.6,0,1.2,0,1.3,0,.2,0,.4-.2.5-.5.2-.3.4-.5.8-.6.4,0,.6-.3.8-.7.1-.4.4-.7.5-.7s.3-.1.4-.3c.2-.2.2-.3,0-.5-.4-.3-.5-.7-.2-1.2.6-.9,1.6-2,1.9-2s.6-.2,1.1-.5c.9-.5,1.4-1.1,1.1-1.5s-.2-.3-.2-.5c0-.8,1.8-1.1,2.8-.5.6.4.9.3,1.6-.3.3-.3.8-.6,1.1-.6.3,0,.6-.3.7-.4s.3-.3.4-.4c.4-.1,1.8.5,1.8.8s.1.4.2.6c.2.3.2.4-.1.6-.2.2-.3.3-.1.3.1,0,.3,0,.3-.1.1-.2.2-.2.4,0,.2.1.3.3.3.5s.2.2.3.2.3,0,.3.1c0,.3,1.7,1.5,2.1,1.5.2,0,.6.2.8.5.2.3.6.5.7.5s.3.1.3.3.2.4.5.5c.4.1.6.4.8,1,.2.5.2.8,0,.8,0,0-.2.2-.2.4,0,.4-1.6.7-2.8.6-1,0-1.3,0-1.3.4s1.5,1.2,2,1.2.3.1.3.2c0,.1.3.3.5.3.4.1.8-.4.6-.8,0-.2,0-.5,0-.7,0-.3.2-.4.5-.3.4.1,1.2-.5,1.2-1s.2-.4.3-.4c.5-.1.4-.8,0-1.1-.4-.2-.4-.3-.2-.7s.3-.4.7-.4c.3,0,.5.1.6.2,0,0,.2.3.3.4.3.3.3.3.4,0,.2-.5-.3-1-1.8-1.7-1-.5-1.1-.6-1-.9,0-.2.1-.3,0-.3,0,0-.5,0-.8,0-.6,0-.8-.2-1.3-.7-.3-.3-.6-.7-.6-.9,0-.4-.3-.8-1.1-1.2-.7-.4-.9-.9-.6-1.3.1-.2.1-.3,0-.3-.3-.2-.2-.5.4-.7.7-.2,1.2-.3.8,0-.2.1-.2.3,0,.6.2.6.5.8.7.5.1-.2.2-.1.2.1s0,.4.2.5c.1,0,.2,0,.2-.2s0-.4.2-.5c.1,0,.2,0,0,.2,0,.2,0,.4.2.6.2.2.2.3,0,.4-.2.1.6.8.9.8s.4.2.5.3c.2.2.5.3.7.4h.4s-.4.2-.4.2q-.4.1.1.2c.3,0,.6,0,.6.2,0,0,.2.2.4.2s.7.3,1.2.6l.9.6v1.1c-.2,1-.2,1.1.3,1.3.3.2.4.3.3.4-.2.2,0,.7.3.7s.4.1.5.3c.3.3.3.6,0,1.2,0,.2,0,.4,0,.4,0,0,.2.2.3.4.1.3.5.4.5.1s.6.4.8,1c.1.5.2.6.5.5.3,0,.4,0,.4.2s0,.3.2.3.2,0,.2-.2,0-.2.2-.2.2.2.2.4,0,.4.2.4c.3,0,.3-.9-.1-1.6-.2-.4-.2-.4,0-.3.1.1.4.2.5.2s.3,0,.2-.4c-.1-.3,0-.3.3-.3.3,0,.4,0,.3-.3,0-.3,0-.3.2-.1.2.1.3.2.3.1s.1,0,.3,0,.3.4.3.5c0,.3,0,.3.3,0,.2-.2.2-.3,0-.6-.2-.2-.4-.3-.4-.2,0,.3-.5-.3-.7-.7,0-.2-.3-.4-.5-.4s-.4-.2-.5-.5c-.1-.3-.3-.5-.3-.5-.2,0-.7-1-.6-1.2,0-.1.3,0,.6.3.5.4.8.6.6.3,0-.1,0-.1.2,0,.2,0,.3,0,.2-.2-.1-.3,0-.3,0-.1.4.4.6.2.2-.2s-.4-.4,0-.6c.3-.1.4-.1.5,0,0,.1,0,.1,0,0s-.2,0-.2,0c0,.3.5.2.6-.1,0-.3.1-.3.6-.1.3.1.7.3,1,.4.5.3,1.1.2,1.4-.2.2-.3.5-.4.9-.3.3,0,.7,0,.8-.2q.2-.2-.4-.5c-.5-.2-1.3-1.6-1-1.8s.2-.3.2-.5.1-.4.3-.5c.3,0,.3-.3.4-.9,0-.7.1-.9.5-1.1.3-.2.5-.4.5-.6s.2-.7.5-1c.3-.3.5-.6.5-.8s.2-.2.4-.2.4.1.4.3c0,.3.9.5,1.8.5.3,0,.5,0,.5.1s-.2.2-.3.2c-.2,0-.9.7-.7.7.2,0,.4,0,.9.2.3.1.4.2.3.6,0,.4,0,.4.4.5.3,0,.5,0,.6-.2,0-.2.3-.3.6-.3s.5,0,.5-.2c0-.1.4-.2.7-.2s.6,0,.6-.3c0-.3,0-.2.9.5.2.2.4.3.5.3s.4.1.6.3c.2.1.4.3.6.3s.4.1.5.3c.3.2.4.2.8.1.4-.2.6-.1,1.1.1.3.2.8.4,1.1.4s.9.3,1.4.6c.7.4.9.5,1.7.4h.9c0-.1,1.1.9,1.1.9,1.9,1.6,6.4,3.7,6.1,2.7s-.2-.2-.3-.2-1-.8-1.9-1.8c-1.4-1.5-1.6-1.8-1.6-2.3s-.5-1.3-1.1-1.5c-.1,0-.2-.1,0-.2.1,0,.3-.4.3-.6.2-.5,1-1.1,1.4-1,.1,0,.2,0,.2-.2,0-.3.4-.7,1.5-1.3.5-.3,1-.5,1-.5s-.1-.2-.4-.5c-.4-.3-.5-.5-.5-1s0-.7-.5-1.2c-.7-.8-.9-1.1-1-2q-.1-.7.5-.9c.4-.1,1-.2,1.5-.2s.9,0,1-.2c.3-.3,2.4-.2,3.5.2.8.3,1.2.4,1.8.3.6,0,.8,0,.8,0s.2.2.3.2.4.1.6.3c.3.3.7.3.8,0,0-.2.3-.2.7-.2,1.2.2,1.5-.8.3-1.2-.9-.3-1.2-.6-.9-.8.2-.2.1-.3-.9-1-.3-.2-.4-.3-.2-1.1.2-.7.2-.8-.1-1.3-.4-.7-.9-.7-1.6,0-.7.8-1.3.8-1.8,0-.2-.3-.6-.8-.8-1.1-.4-.5-.4-.5-.1-.8.2-.2.5-.3.8-.3,1.1,0,1.5-1.4.7-2.2-.6-.6-.9-1.2-.9-2.2,0-1.9-.5-3.8-1.4-6-.7-1.5-.9-2.2-.8-2.3.1-.1.5-.3,1-.5,1.7-.6,3.6-2,3.6-2.5,0-.1-.3-.5-.7-.9-.8-.8-1.9-1.2-3.9-1.3-1.8-.2-1.9-.2-2.9-.6-.7-.3-.9-.3-1.1-.2s-.1.3.2.5c.2.2.4.3.5.3.2-.1,1.5.5,1.8.8.3.3.3.4-.2.4s-.4,0-.3.3c0,.2,0,.2-.2.2-.1,0-.3-.2-.3-.2,0-.3-.3-.9-.5-.9-.4-.1-.5.2-.1.3s-.1.1-.5.2-.7.2-.8.3c0,0-.5.1-1,.1-.4,0-.9.1-1.1.2-.1.1-.4.2-.6.1-.5,0-.6-.6-.2-.7.2,0,0,0-.4-.1-.4,0-.8.1-1.1.2-.2.1-.6.3-.9.3-.3,0-.9.2-1.3.4-.4.2-.8.4-1,.4-.5,0-1,.4-1,.8,0,.2-.1.4-.3.5-.5.2-1.3.1-1.5-.1-.1-.1-.3-.3-.5-.3-.5,0-.1-.4.5-.6l.6-.2-.6-.4c-.5-.4-.8-.5-1.8-.5-1.3,0-1.8,0-.9.3.5.1.5.2.5.8s0,.8.4.9c.4.2.5.5.3.9-.1.2-.2.2-.5,0-.2-.1-.5-.2-.7-.2s-.4-.1-.4-.3-.2-.1-.5.3c-.3.3-.7.5-.8.5s-.5.2-.7.4l-.5.4.4.4c.6.6.3.8-.9.5-.5-.1-1.1-.3-1.3-.4-.3-.2-.5-.2-.7,0-.4.2-.4.7,0,.7s.2,0,.2.2.2.2.5.2.5.1.6.3c.2.4-.9.4-1.7-.1-.3-.2-.7-.3-.9-.3s-.3-.1-.3-.2-.2-.4-.3-.5c-.3-.2-.3-.4-.2-.6.2-.4-.1-.7-.9-.9-.2,0-.5-.2-.5-.3,0-.2.2-.1,1.3,0,3.5.7,4.5.7,5.6,0,.5-.4.6-.8.2-1.3-.3-.4-1.5-1-1.7-.8,0,0-.3,0-.6-.2s-.6-.3-.6-.3c-.1,0-.5-.1-1.4-.5-.4-.2-1.5-.4-2.3-.5-1-.1-1.6-.3-1.6-.4,0-.2-1.2-.5-1.4-.3-.1,0-.5,0-.9,0h-.8c0,0,.6-.3.6-.3.3-.1.5-.3.5-.4-.1-.2-2.1-.7-2.3-.6-.1,0-.2,0-.2,0s-.3-.2-.6-.2-.6.1-.8.4c-.2.3-.3.3-.3.1,0-.1-.2-.4-.5-.5-.6-.3-.7-.3-.8,0ZM249,19.2c0,0,0,.2-.2.2s-.1,0,0-.2c0-.1.1-.2.2-.2s0,0,0,.2ZM250.9,19.1c0,.2-.5.2-.6.1,0-.1,0-.2.2-.2s.4,0,.4,0ZM243.1,20.7c0,0-.1.1-.3,0-.1,0-.3-.1-.3-.2s.1,0,.3,0,.3,0,.3.2ZM241.4,21c0,0-.1.2-.3.2-.3,0-.3,0,0-.2.3-.2.3-.2.3,0ZM239.6,22.1c0,.1,0,.2,0,.2s-.2-.2-.2-.3c0-.2.1-.2.2.1ZM240.9,22c-.1,0-.3,0-.4,0-.1,0,0,0,.2,0s.3,0,.2,0ZM248.5,25.7c.4,0,.5.2.5.4s0,.3-.4.2-.3,0-.3.1c.1.3-.9,1.3-1.3,1.3s-.2,0-.2.1c0,.2-1,.7-1.2.6-.1,0-.3,0-.4,0,0,.1,0,.2.2.3.2,0,.2.1,0,.3-.2.2-.2.3,0,.6.1.2.2.5.3.6,0,.2.1.7.1,1.2,0,.7,0,.9.2.8.2,0,.3,0,.3.2,0,.1.2.3.5.3.3,0,.6.2.6.3,0,.1.5,0,1.3-.2.7-.2,1.4-.3,1.5-.3.1,0,.3,0,.4,0,0-.1.6-.2,1.3-.3,1,0,1.3,0,1.6.2.5.4.4.5-.2.5-.3,0-.5.1-.5.3,0,.2-.8.2-2.5,0-.8-.1-2.8.8-2.2,1,.3.1.3.4,0,.3-.1,0-.3-.2-.3-.3s-.1-.2-.2-.2c-.3,0-.9.3-.7.3.3,0,.3.4,0,.4s-.3.1-.2.5c.1.6.3.7.4.4,0-.1.2-.2.4-.2s.3,0,.3-.2c0-.2.7-.4.8-.2,0,0,.2.2.4.2.6,0,.4,1.7-.2,1.7,0,0-.4-.3-.7-.6-.6-.5-.7-.5-1.1-.4-.7.3-1.1,1.3-1,2.3.1.9-.2,1.4-.8,1.4s-.3.1-.3.3-.2.3-.4.5c-.5.2-1,0-.9-.2.3-.5-2.1-.3-2.5.3,0,.1-.6.3-1.2.4-1.1.2-1.6.1-1.6-.4s-.5-.4-2.1.3c-.4.2-.7.2-.8.2-.1-.2.7-.8.8-.7,0,0,.2,0,.2-.2,0-.1.2-.3.4-.3s.2,0,.2-.2c0-.1-.2-.1-.3,0-.1,0-.1,0,0-.2.1-.1.2-.3.1-.4,0,0,0-.1,0-.1s.2-.1.2-.3c0-.2,0-.1.1.1.1.4.2.4.9.4s.8,0,.8-.3c0-.5.5-.7,1.3-.8.5,0,.6,0,.6-.3s0-.3.2,0c0,.1.2.2.2.2.2-.2.6-1.4.5-1.5,0,0-.2,0-.2.1-.1.4-.4.2-.3-.2,0-.3.2-.9.2-1.5,0,0,.2-.2.4-.2l.5-.2c0,0,.3,0,.5-.2.2,0,.4-.2.4-.4s.1-.4.3-.5c.2-.2.2-.3,0-.6-.2-.4-.3-.5-1.2-.9-.5-.2-.7-.6-.5-1.1,0-.2.1-.5.1-.7s.2-.5.5-.8c.3-.2.5-.4.5-.5,0-.2,1.2-.8,1.5-.8s.4-.3.8-.6c.5-.4.6-.6.4-.7-.2-.1-.2-.3.2-.7.2-.3.5-.5.5-.4,0,0,.1,0,.1,0,0-.2,1.3-.3,2.2,0ZM235.3,27.3c0,.2-.8,1-1.1,1s0-.1,0-.3.2-.3,0-.3,0-.2.3-.3c.4-.4.7-.4.7-.1ZM232.2,29.3c0,0-.2,0-.3,0-.1,0,0-.1.1-.1.2,0,.3,0,.2,0ZM235.8,39.9c0,0-.1.2-.3.2-.1,0-.2,0-.2,0s0-.2,0-.2-.2,0-.2-.2.2-.1.3,0,.3.2.3.2ZM246,39.9c-.1.1-.2.1-.2,0,0-.2.2-.4.3-.3,0,0,0,.2-.1.3ZM234.9,40.2c0,0,.1,0,.2,0,.4.3-.2.6-.7.3-.6-.3-.5-.6,0-.4.3.1.4.1.4,0ZM229.1,43.2c0,.1-.2.2-.3.2s0-.1,0-.2c.2-.3.4-.2.2,0ZM266.8,51.4c-.3.2-.6.3-.7.2,0,0-.1,0-.1.2s.2.3.4.4c.3.1.3.1.1.3-.2,0-.3.4-.4.6-.1.4-.2.4-1.1.4-.5,0-1.1,0-1.2,0s-.3,0-.5-.3l-.4-.5.5-.5c.3-.3.7-.5,1-.6.3,0,.6-.1.8-.2.4-.2,1.3-.4,1.8-.4.4,0,.4,0-.2.3ZM247.7,63.8c0,0,.1,0,0,.2,0,.1-.2.3-.3.3s-.2,0-.3,0c0,0-.1-.2-.2-.5q0-.6.2-.3c.1.2.3.3.4.3ZM250.9,63.4c.2.1.2.2,0,.2s-.3,0-.4-.2c-.1-.2,0-.2.4,0ZM249.8,64c0,0-.2,0-.3,0-.1,0,0-.1.1-.1.2,0,.3,0,.2,0ZM250.2,64.7c0,.1-.1,0-.1-.1,0-.2,0-.3,0-.2,0,0,0,.2,0,.3Z"/>
    <path class="st4" d="M202,24.7c-.2.1-.4.3-.6.3s-.3.1-.3.2,0,.2-.1.2-.3.1-.5.3c-.3.3-.2.3.7.2,1.3,0,1.5.3.2.5-.8.1-1,.2-.9.4,0,0,.2.2.3.2s.1,0,0-.1c-.1-.2,1.2,0,1.3.2.3.4.1.6-.3.6s-.4.1-.4.2.2.2.8.2c.5,0,1,0,1.3.2.7.3,2.2.4,2.8.1.9-.4,1.7-.6,2.5-.8,1.1-.3,2.2-1,2.2-1.4s-.2-.4-.5-.5c-.3-.1-.5-.3-.4-.4s0-.2-.1-.2c-.1,0,0-.1.1-.3.3-.3.3-.3-.3-.2-.4,0-.7,0-.7,0-.2-.3-.8-.2-.8,0s-.2.3-.4.3h-1.4c-.8,0-1.1,0-1.2.3-.2.3-.2.3-.3,0-.2-.4-.6-.4-.6,0s0,.3-.3.3c-.1,0-.3,0-.3,0-.2.3-.4.2-.3-.2,0-.2-.1-.4-.5-.7-.7-.4-.7-.4-1,0Z"/>
    <path class="st4" d="M216.6,30c-.2.2-.1.6,0,.5,0,0,.2,0,.3.1,0,.1,0,.3,0,.3-.2,0-.1.2,0,.4.3.2.3.2.2,0,0-.2,0-.3,0-.4,0,0,.1-.2,0-.3s0-.2,0-.3c0,0,.2-.2.2-.3s0-.1-.2,0c-.1.2-.2.2-.3,0-.1-.2-.3-.2-.5,0Z"/>
    <path class="st4" d="M220.2,34.1c-.1.1-.2.3-.2.4,0,.3-.7.5-1.3.4-.3,0-.5,0-.7.3-.4.7-.9,1.1-1.1,1,0,0-.3,0-.4,0-.2.2-.2.3,0,.5.1.1.2.3.2.3,0,0,0,.1,0,.2s0,0,.2-.1.2-.2.3,0c0,.1-.2.3-.5.4-.3.1-.6.3-.6.4s.1,0,.3,0,.3-.1.3,0,.1.3.3.3c.2,0,.2.1-.2.3-.3.1-.5.3-.5.4,0,.3.3.4.6.2s.4,0,.4.2,0,0-.2,0c-.1-.2-.2-.2-.2,0s0,.3.5.2.5,0,.4.2c0,.2-.2.3-.3.3s0,.2,0,.4c.1.2.2.3.3.2.2-.2,1.4-.2,1.3,0,0,.1,0,.4.2.5.3.4.3.9,0,1.1-.1,0-.5,0-.8,0-.4,0-.6,0-.6.1s0,.1.2,0c.3-.2.2,0-.2.4l-.4.4h.4c.7-.2.6.4-.2.7-.9.4-.9.8.2.9.8,0,1.4.4.7.4s-1.2.5-1.2.8-.3.3-.6.4c-.3.2-.5.4-.5.4.2.2.6.2,1-.1.2-.2.6-.2.9-.2.4,0,.6,0,.8-.2.2-.3.5-.3,1.5-.3.7,0,1.2,0,1.2,0s.3-.1.7-.1c.7,0,2.2-.4,2.2-.7s-.1-.2-.3-.2c-.3,0-.3-.4,0-.6.5-.2.8-.9.6-1.3-.2-.4-1.1-.6-1.5-.3-.3.2-.3.2,0,0,.2-.2.2-.4,0-.8-.1-.3-.2-.6-.2-.7,0-.2-.5-.7-.9-.9-.2-.1-.4-.4-.5-.6-.2-.6-.6-1.2-.9-1.2-.4,0-.4-.5,0-.8.2-.1.3-.3.3-.4s.1-.3.3-.5c.4-.4.1-.6-.9-.6s-1.1,0-1.1-.2c0-.1,0-.2,0-.2s.4-.2.6-.3.4-.3.3-.3,0-.2.2-.4c.2-.2.4-.5.4-.6.2-.3-.6-.3-.9,0ZM217,36.5c0,0,0,.2-.2.2s-.1,0,0-.2c0-.1.1-.2.2-.2s0,0,0,.2Z"/>
    <path class="st4" d="M214.6,39.5c-.4.1-1.2,1.1-.9,1.1s.1,0,0,.2c0,.1-.4.1-.9.1-.6,0-.8,0-.9.2-.1.2-.1.3,0,.4.2,0,.2.1,0,.3-.3.3-.3.4.2.6.6.2.5.4-.3,1-.6.5-.9,1.1-.5,1.1s.1,0,0,.2c0,.1,0,.2.2,0,.2,0,.3,0,.3,0,0,.3,1.3,0,2.2-.5.4-.2,1-.4,1.3-.4.5,0,.6,0,.7-.7.1-.4.2-.9.2-1.3,0-.6,0-.7.4-.9.5-.2.5-.6.1-1.2-.3-.4-1.7-.6-2.4-.4Z"/>
    <path class="st4" d="M233.3,57c0,.2-.3.3-.5.4s-.4.2-.5.4c-.1.4.2,1.2.5,1.5.3.2.3.2-.2.5-.4.2-.5.3-.6.1-.1-.2-.2-.1-.2.1,0,.2,0,.5.1.6.1.2.2.5.2.7-.3,1.3-.3,1.4.1,1.6.3.2.4.1.6-.1.1-.2.3-.3.5-.2.3.1.4-.2.5-1.6,0-1,0-1.2-.3-1.4-.3-.2-.3-.3-.1-.9.2-.7.2-2.2,0-1.7Z"/>
    <path class="st4" d="M250.7,67.6c0,0-.1.2-.1.4,0,.2.2.3.7.4.4,0,.8.2.8.3,0,.1.5.1,1,0,.9-.1,1.2-.4.7-.5-.2,0-.2,0-.1.2.1.2,0,.2-.2,0-.2-.2-.7-.3-1.2-.3-.5,0-.9-.1-.9-.2,0,0-.1-.1-.2,0-.1,0-.2,0-.3,0s-.2-.1-.2,0Z"/>
  </g>
  <g>
    <path class="st2" d="M128.5,101.8c-.3.1-.5.3-.5.5s-.1.3-.2.3-.4.2-.7.3c-.3.2-.7.3-1,.3s-.7,0-.7.3c0,.2-.2.2-.5.2-.7-.2-1.6,1.2-1.5,2.2,0,0,0,.1-.2.1-.2,0-.7.4-.7.6s-.2.3-.5.4c-.4.2-.5.4-.4.6,0,.2-.2,0-.6-.5-.6-.7-1.7-1.3-2.2-1.3s-.2.2-.2.5.1.6.4.7c.2.1.5.4.5.5,0,.2.2.3.3.2.1,0,.1,0,0,.2-.3.3-.1,1,.3,1.4.1.1.3.4.4.6.2.6.3,3.5.1,3.6-.1,0-.1.2,0,.4.2.4,0,1.5-.4,1.5s-.2.1-.2.2-.3.3-.6.5c-.4.2-.6.3-.6.6s-.1.4-.3.5c-.2,0-.2.2-.2.5.1.4,0,.4-.7.7-.7.3-.8.3-.8.9s0,.7-.3.7c-.1,0-.3.3-.3.5s-.1.5-.3.6c-.2.1-.3.3-.3.4.2.3.2,1.5,0,1.5s0,.2.4.5c.3.3.5.6.5.7s0,.2.2.2.2,0,.2-.2,0-.2,0-.1c.1.1-.1.6-.3.6s-.5.3-.8.7c-.6.7-.6.8-.5,1.4,0,.4.2.8.3.9.3.3.3.7,0,.7-.4,0,0,.5.6.9.6.3.9.6,1.2,1.2.3.5.6,1.1.8,1.4.2.3.6,1.1.9,1.8.3.7.7,1.5.9,1.7.2.2.3.6.3.7s.2.4.3.6.3.4.3.6,0,.3.2.4c.4.2,1.4,2,1.3,2.2-.2.4.2,1.1,1,1.9.8.8,3.1,2.3,4.1,2.6.3.1.5.2.5.3s.3.3.6.5c.3.2.6.4.6.5,0,.2.4.6.6.6.3,0,.9.8,1.1,1.5.5,1.8.9,5.8.5,5.8s-.1.2-.1.4,0,.4.1.4c.2,0,.4,6.9.2,7.5-.1.3,0,.5.1.9.2.4.2.7.1,1.4,0,.7,0,1,.3,1.7.2.4.3.9.3,1.1s0,.3.2.3.2.3.2.7c0,.4,0,.9,0,1.1,0,.4-.1,2.3-.3,3.7,0,.5,0,1,0,1.3s0,.4-.3.3c-.2,0-.3,0-.2.4,0,.3.2.6.4.7.1.1.2.4.2.5s.2.6.4,1c.3.5.4.9.3,1.2-.2.8,0,2.2.4,2.5.2.2.2.3.1.3s-.2.2,0,.5c0,.3.2.8.2,1.1.2,1,.7,1.3,1.1.6.2-.3.1-.4,0-.6-.1-.1-.1-.2,0-.2s0-.1,0-.3-.2-.3,0-.3,0,0,0-.2c-.3-.3-.3-.5,0-.4.2,0,.3,0,.2-.2,0-.2,0-.2,0-.2s.2.2.2.4,0,.2.2.2.1,0,0,.1c0,0,0,.4,0,.7s.2.9.3,1.4c0,.5.2.9.3,1,.2.1.1.2-.1.3-.2,0-.4.2-.4.2,0,0,0-.2,0-.4,0-.5-.2-.7-.6-.7s-.2,0,0,.2c.2.4.2.6,0,.6s-.3.2-.4.3c-.2.4-.2.7,0,.4.2-.4.9,0,.9.6s0,.4-.2.4-.2.2-.1.5c0,.3,0,.6-.1.7-.1.1-.2.4-.2.5.1.3.5.4.6,0,0-.2.2-.2.4,0,.2.1.5.2.5.1.1,0,.1,0,0,.2,0,.2,0,.3,0,.3.3,0,0,.9-.4,1.1-.2.1-.3.2-.2.3,0,0,.1.2.1.2,0,.3.3.9.4.9s.1,0,.1.1c0,.2.3,1,.6,1.2.2.1.3.4.4.7,0,.3.2.5.3.5,0,0,.3,0,.4,0,.1,0,.3.3.3.7s.1.6.1.5c0-.1.2,0,.4.4.3.4.4.5.7.5.2,0,.5,0,.8.3.2.2.5.4.5.3,0,0,.1,0,.1.2,0,.2-.2.2-.9-.1-.2,0-.2,0,.2.4.4.4.6.5.7.3.2-.3.5,0,.4.3,0,.1,0,.2,0,.2.3,0,.7.2.7.5s.2.2.5.2.5,0,.4-.3c0-.2-.2-.2-.4-.2s-.3,0-.3,0c0-.3.7-.1.9.2.1.2.2.4.2.5s0,.2.3.3c.2,0,.4.3.5.4.3.3.5.3.5,0s0-.1.2,0c0,.1.2.3.3.3,0,0,.4.1.6.2.3.1.5.2.6.1s.2,0,.3,0,.2.1.3,0c0,0,.2,0,.2,0s.3.2.8.2c.4,0,.9,0,1,.2.2.1.3.2.4.1s0-.2-.2-.4c-.3-.2-.2-.2.7-.2.8,0,.9,0,.9-.2,0-.2,0-.3.2-.3s.3-.1.3-.3c0-.1.2-.3.3-.3s0,.1,0,.3c-.2.2-.2.3,0,.3s.3-.1.3-.3-.1-.3-.6-.3c-.9,0-2.7-1-3.7-2-.5-.5-.8-1-.8-1.1s-.2-.3-.4-.5c-.6-.4-1.4-1.6-1.4-2.1s.1-.4.4-.5c.5-.1.7-.5.4-1.2-.2-.5-.1-.7.8-1.5.3-.3.5-.6.4-.7,0-.1-.2-.3-.2-.5,0-.5-.4-.8-.9-.8s-1.6-.6-1.8-1c-.4-.7.3-1.7,1.1-1.7s.7-.3.4-.4c-.1,0-.1-.2,0-.2.2-.1.2-.3,0-.8l-.3-.7.5-.5c.3-.3.6-.5.8-.5.3,0,.3-.4,0-.8-.2-.3-.3-.3-.9-.2h-.7c0,.1-.4-.8-.4-.8-.2-.5-.4-.9-.3-1,0,0,.5,0,.8.2.8.3,1.3.3,1.9,0,.4-.2.6-.7.2-.9-.1,0-.1-.3,0-.7,0-.4,0-.7-.2-.9-.3-.3-.3-.3,0-.2.2,0,.3,0,.2,0,0-.2.1-.2.7-.2,1.8,0,4.2-.8,4.2-1.5s0-.4.2-.5c.6-.7.5-2.1-.1-2.1s-.5-.3-.5-.9-.4-.8-1.2-1.3c-.3-.2-.6-.4-.6-.6q0-.3.3,0c.2.2.6.3.9.3s.5,0,.5.2c0,.2.8.4,2,.4,1.4,0,2-.3,2.2-1.3,0-.3.2-.5.2-.5.2,0,.6-.9.8-1.5,0-.4.3-.8.7-1.1.4-.4.6-.6.5-.8-.1-.3-.1-.3-.2,0-.1.3-.6.6-.7.5,0,0,.1-.3.3-.6.2-.3.4-.7.4-.9s.1-.4.3-.4.2.1.2.4c0,.2,0,.4.2.5.2,0,.3-.2.4-.6.4-1.6.5-1.8,1-2.3.7-.7.9-1.8.6-2.7-.2-.6-.3-2.5-.1-2.5.1,0,1.5-1.4,1.5-1.6s.2-.2.5-.3c.3,0,.5-.2.5-.3s.2-.1.6,0,.6,0,.6,0,0-.2-.2-.2-.1,0,0-.2c.2-.3,2.3-.9,3.2-.9.9,0,.9,0,1-.5,0-.3.3-.6.6-.7.4-.2.5-.4.4-.7,0-.3.2-1.1,1.2-3,.2-.3.2-.7.1-1.3,0-.7,0-.9.2-1.1.3-.3.5-1.7.4-3.1,0-.3,0-1.3,0-2.2,0-1.6,0-2.1.5-2.1s.6-.5.9-1.4c.6-1.3.7-1.6,1.1-1.9.5-.5,1.9-2.4,2.1-2.9.4-1,.4-2.2,0-3.7-.2-.8-.5-1.5-.5-1.6s-.6-.2-1.1-.2c-1.1-.1-1.1-.1-2.5-1.5-.5-.5-1.3-1.1-1.9-1.4-.8-.5-1-.5-1.7-.4-.5.1-.8,0-1.2,0-.3-.1-.5-.2-.6-.1,0,0-.4,0-.6-.2-.5-.3-1.5-.5-1.4-.3,0,.1,0,.2-.3,0-.5-.2-.8-.5-.7-.7,0-.1,0-.3-.2-.5-.1-.2-.3-.3-.3-.4s0-.2-.2-.2-.2,0-.2.2c0,.2-1.2-.3-1.4-.6,0-.1-.1-.1-.1,0s-.1,0-.2,0c-.2-.2-.7-.3-1.4-.4-.5,0-1.1.3-1.3.9-.3.7-.3.4,0-.4.3-1,.3-1.1-.4-1.2-.4,0-.7-.3-.9-.5-.1-.2-.3-.3-.4-.3-.2,0-.2-.2,0-1.2,0-.3,0-.6-.3-1-.2-.3-.5-.5-.6-.5-.2,0-.6-1.3-.6-2s-.7-1.5-.7-1.2c0,0-.4-.3-1-.8-.5-.5-1-.9-1.2-.9s-.4-.1-.7-.3c-.6-.3-2.6-.5-2.7-.2-.2.3-1.4-.2-2.2-.9-.4-.4-.8-.7-.9-.7s-.2-.2-.2-.4c0-.2-.2-.5-.3-.7-.5-.6-1.9-1.4-2.2-1.3-.4.1-.6-.2-.4-.5.3-.3.2-.7-.2-.9-.2,0-.4-.2-.4-.3s-.1-.1-.3-.1-.4-.1-.5-.2c-.2-.2-.3-.2-.4,0-.1.2-.2.2-.2,0s0-.3-.1-.5c0-.2,0-.3.1-.3s.4-.1.6-.3c.3-.3.2-.3-1.3-.2-.9,0-1.7.1-1.7.1s-.1.1-.1.2-.2.3-.4.4c-.5.3-1.6,0-1.6-.4s-.2-.2-1.4-.1h-1.4c0,.1,0-.3,0-.3,0-.5-.8-1.1-1.5-1.1s-.4-.1-.4-.4c0-.5-.1-.6-.4-.5-.1,0-.2.3-.2.7s0,.6-.5.7c-.3,0-.7.3-1,.5-.4.3-.5.3-.4,0,0-.2,0-.3,0-.3s-.2-.2-.2-.3.1-.3.3-.3c.3,0,.7-.5.7-.8,0-.3-.6-.5-1.1-.3ZM129.3,105.8c0,.4-.3.8-.5.8s-.2-.3-.3-.7c-.2-.6-.2-.7.1-1l.3-.4.2.4c.1.2.2.6.2.8ZM132.4,143c.2.3.3.5.2.6-.1.2-.2.2-.3,0,0-.2-.2-.3-.3-.3s-.3-.2-.3-.3c-.1-.5.2-.4.7,0ZM165.2,154c0,0,0,.2,0,.2,0,0-.1,0-.2-.2,0-.1,0-.2,0-.2s.2,0,.2.2ZM158.9,165.1c0,.1-.1,0-.1-.1,0-.2,0-.3,0-.2,0,0,0,.2,0,.3ZM146.6,182.7c0,0,0,.2-.2.2s-.4,0-.4-.2.1-.2.2-.2.3,0,.4.2ZM137.5,185.5c0,.1-.2.2-.3.2-.2-.1,0-.4.2-.4s.1.1,0,.3ZM137.1,186.1c.2.5,0,.6-.2,0-.1-.2-.1-.4,0-.4s.2.2.3.4ZM137.9,186.7s-.1.1-.3.2c-.1,0-.3,0-.3,0s.1-.2.3-.2.3,0,.3,0ZM145.5,197.4c0,.4.3.6.9.5.5,0,.5,0,.1.2-.2.1-.3.3-.3.4,0,0,0,0-.2-.2-.2-.3-.3-.3-.4-.1,0,.2-.2,0-.3-.2-.3-.5-.3-1.2,0-1,.1,0,.2.3.2.4ZM144.4,197.4c0,.1-.2.2-.4.2-.2,0-.2,0,0-.2.4-.3.5-.2.3,0Z"/>
    <path class="st2" d="M156,194.9c-.2,0-.5.1-.6,0-.2,0-.2,0,0,.2.3.3.3.7,0,.6-.5-.2-.3.3.2.5.5.3.5.2,1.1-.4.3-.4.5-.5.4-.3-.3.8-.3.9,0,.9s.7-.2,1.1-.5c.7-.4.8-.5.5-.7-.2-.1-.6-.3-1.1-.3-.4,0-.9,0-1-.1-.1,0-.4,0-.6,0Z"/>
  </g>
  <g>
    <path class="st0" d="M197.8,5.6c-1.3,0-3.3.2-4.6.2s-2.5.2-2.8.2c-.3,0-.7,0-.9,0h-.4c0,0,.4.3.4.3.3.3.4.3.1.4-.2,0-.3,0-.4-.2,0-.1-.3-.2-.4-.1-.2,0-.4,0-.6-.2-.3-.3-.5-.3-.4,0,0,.1-.2.2-.5.2-.5,0-.6,0-.5.3s0,.3-.3.2c-.9-.3-1.6-.3-1.8,0-.2.3-.2.3-.2,0s-.1-.3-1.9-.2c-1.1,0-2.4.2-3,.2-.6,0-1,0-.9,0,.4-.2.2-.4-.4-.4s-.7,0-.8-.2-1.9-.2-6-.2c-5.9,0-7.8,0-9,.5-.5.2-.9.2-1.4,0-.5-.1-1-.1-1.6,0-.5.1-1.5.2-2.3.3-2,.1-3.1.3-3.1.4s.2.2.3.2.3.1.3.2.3.3.6.4c.4.1.4.2.2.2-.2,0-.5.1-.6.2-.2.2-.2.2-.2,0,0-.1-.1-.3-.4-.3-.2,0-.6-.2-.7-.4-.2-.3-.5-.3-1.2-.3s-.9,0-.9.2c0,0-.4.2-.7.2s-.6,0-.6.2-.2.2-.4.2c-.2,0-.7.1-1.2.3-.6.3-.7.4-.7.7,0,.3.1.4.5.5.4,0,.4,0,.2.2-.3.1-.3.1,0,.5.3.4.4.4,2.6.4,2.3,0,3.5.2,2.8.5-.2,0-.4,0-.4,0,0-.2-1.3-.3-1.8-.1-.2,0-.2.2-.2.4,0,.3,0,.3-.3.3-.2,0-.8,0-1.3.1s-.9.2-1,.1c-.1-.1-.8.1-.8.3s0,.1.2,0c.1,0,.1,0,0,0-.1.2-.2.1-.4,0-.2-.2-.5-.3-1.1-.2-.5,0-.8,0-.9,0,0-.1-.3-.2-.5-.2s-.4,0-.5-.2c-.1-.2-1.7,0-1.8.2,0,0-.2.2-.3.2-.2,0-.2.1,0,.1.3,0,.6.8.4,1,0,0-.6.1-1.2.2h-1.2c0,0,.5-.4.5-.4.4-.4.4-.5.2-.7-.2-.2-.3-.2-.6,0-.4.3-.6.3-.4,0,.2-.3-1-.2-2.1.1-.6.2-.9.4-.9.5s0,.2-.2.2c-.1,0-.1-.2,0-.3.1-.2-.7-.7-1-.6-.4.2-1,.7-.7.7s.1,0,0,.1c-.2.2.5.5,1.2.6.6,0,.7,0,.7.3,0,.3.1.3,1.2.3.9,0,1.3-.1,1.5-.3.1-.2.3-.2.5-.1.2,0,.3.2.1.2-.2,0-.1.2,0,.3.2.1.2.2.1.2-.3,0-.3.3,0,.3s.3,0,.3-.2.4-.1.8,0c.7,0,.9,0,1.3-.4s.4-.5.2-.6c-.2-.1-.2-.2,0-.3.1,0,.2-.2.2-.3,0-.4,1.5-.3,1.6,0,0,.2,0,.3,0,.3,0,0-.3.1-.5.2-.4.2-.8.9-.5.9.5.1,1.4.2,4,.3,2.2,0,3.1,0,3.2,0,.2-.2.3-.2.4,0,.1.2,2,.1,3-.2.5-.2,1-.5,1-.8,0-.5-2.3-.6-4.6-.3-.7.1-1.4.2-1.5.1s-.5-.1-.9-.1c-.8,0-1.5-.4-.8-.4s.4,0,.5-.1c0,0,1.1-.1,2.3-.1,1.2,0,2.6,0,3.2,0s1.2,0,1.4,0q.3,0,0,.2c-.2.1,0,.1.7,0,.7,0,.9,0,.6,0-.5.2-.5.3,0,.3s.5-.1.5-.3c0-.2.2-.3.5-.3.6,0,1.4-.4,1.4-.6s-.1-.2-.4-.2c-.3,0-.4,0-.3,0,0,0,.3-.2.5-.2s.6-.1.9-.3c.3-.2.9-.3,1.4-.3,1.2-.1,1.6-.2,1.3-.4-.2-.1,0-.1.3,0,.3,0,.6,0,.6,0s.3-.2.4-.2.5-.2.7-.4c.4-.4.8-.5,2.7-.7.5,0,1.2-.2,1.5-.3.3-.2.6-.3.8-.3,3.5-.6,4.5-.9,4.3-1-.1,0,0,0,.4,0,.4,0,.7,0,.8,0,.2-.2,2.7-.6,2.8-.5,0,0,0,.2-.2.3s-.6.3-1.2.3c-1.3,0-4.8.7-4.9,1,0,.1.2.2.7.2s.8,0,.8.2c0,.3-.8.6-2.4.7-2.5.2-5.1.6-5.6.9l-.5.2.4.2c.2.1.6.2.7.2s.4,0,.4.1c0,0-.3.1-.8.1s-1,0-1,.1.1.2.3.2.4,0,.3.2c-.2.4,1.2,1.2,2.2,1.3.6,0,.8,0,.7-.1,0-.1,0-.1.4,0,.3,0,.6.1.7,0,.4-.3,2.9-.2,4.1.1,1.3.3,1.8.5,1.2.5s-.2.5.3.6c.4.1.4.1,0,.3q-.3.2,0,.3c.2,0,.2,0,0,.1-.2,0-.4,0-.3.2,0,0,.2.1.4,0,.2,0,.2,0-.1.3l-.4.4h.4q.4-.2.1.1c-.3.3-.3.4,0,.5.2.1.2.2-.1.2-.4,0-.5.3-.2.4.1,0,0,.2-.3.5-.4.4-.4.4-.2.7.2.2.4.3.8.2.3,0,.7,0,.7,0,0,0,0,.1-.2,0-.2,0-.3,0-.3,0s.2.2.4.2.3-.1.3-.3c0-.2,0-.3.1-.3s.2.1.1.2c0,.1.1.2.3.2s.4.1.4.3c0,.4-.2.5-.4.2-.1-.2-2.1-.2-2.2,0,0,0,0,.2.1.3.1,0,0,0-.3,0-.3,0-.4,0-.4,0s0,.4-.2.6l-.3.4.5.3c.5.3.6.3,1.5,0,1.1-.3,1.2-.5.6-.8-.3-.1-.4-.3-.3-.3,0,0,.2,0,.3,0s.4.2.6.2c.5,0,.5.5,0,1.2-.3.4-.4.4-1.1.4-.8,0-.8,0-1.3.4-.3.3-.5.5-.6.5-.2,0-.9.9-.9,1.1s.1.2.3.3c.2,0,.2,0,0,.2-.4.2-.8.8-.6.9,0,0,.1.3,0,.5,0,.3,0,.3.2.3.2,0,.3,0,.2.1,0,.1,0,.3,0,.3s0,.3,0,.6c-.2.6-.2.7,0,.8.2.1.2.2,0,.3-.3.2,0,1,.3,1s.2.2.1.5c0,.3,0,.5,0,.5s.2.3.3.7c.1.4.3.7.4.8s.3.3.3.4c0,.4.2.4.6.2.4-.2,1.9.3,1.9.6s.1.3.3.3c.2,0,.5.2.7.3.5.2,1.3,0,1.5-.5,0-.2.3-.4.4-.4s.2-.2.3-.3c0-.2.4-.6.7-.9s.6-.8.7-1c0-.3.3-.5.5-.6.2,0,.6-.4.9-.6s.6-.5.8-.5c.2,0,.3-.2.3-.3s.2-.4.4-.6c.2-.2.3-.5.3-.7,0-.2,0-.3,0-.3.2,0,1.2-.4,1.1-.6,0,0,.3-.2.7-.2s.7,0,.7-.2c-.1-.2,0-.2.1,0,.4.3,1.2.4,1.2.2s.1-.2.3-.2.3,0,.3-.2,0-.1.2,0c.1,0,.3,0,.4,0s.6-.3,1.1-.5,1.3-.6,1.8-1.1c.5-.4,1.1-.8,1.3-.8.3,0,.5-.2.6-.4.1-.2.2-.3.3,0,.1.2.4.2.9.1,2.4-.4,5-.9,5.7-1.3.4-.2.8-.3.8-.3s.7-.2,1.3-.5l1.2-.5h-1c-1.4-.3-2.6-.5-2.1-.5.3,0,.4-.1.3-.4,0-.3,0-.4.4-.4s.5,0,.5.3c0,.2,0,.4.2.4.2.2,1.9.3,2.1.2s.2-.4.2-.8c0-.7,0-.7-.6-1-.5-.2-.5-.3-.1-.2.5.1,1.1-.3.8-.5-.2-.1-.1-.2,0-.2s.3,0,.2-.3c-.1-.3.3-.5,1.1-.5s1.1-.6.5-.7c-.2,0-.2,0,.1-.1.2,0,.5,0,.6,0,.3,0,1.5-.5,1.7-.8s.3-.2.5-.1.3,0,.4,0c0-.1,0-.2-.2-.2s-.2,0-.2-.2c0-.1-.1-.2-.4-.2-.5,0-.8.4-.6.7.1.2-.7.2-.8,0,0,0,0-.2.2-.3.5-.3.4-1.2-.1-1.5-.5-.3-.3-.5.5-.4.4,0,.6.1.5.3,0,.2,0,.2,0,.2.1,0,.2,0,.1.2-.1.5.1.4.3-.2.1-.3.3-.5.4-.5s.2-.1.2-.3c0-.2-.2-.3-.7-.3-.4,0-.7,0-.8-.1,0,0,0-.1.2,0,.2,0,.5,0,.6,0,.2-.1.1-.2-.2-.3-.2,0-.5-.3-.6-.4,0-.1-.2-.1-.4,0-.4.3-.5,0,0-.3.3-.3.5-.3,1.1-.2.6,0,.7,0,.6-.2,0-.2,0-.3.2-.3.2,0,.2,0,0-.2-.4-.2-.2-.3.9-.4.4,0,.8-.2.8-.3,0-.1.4-.2.7-.3.4,0,.6-.2.5-.3s.2-.2.5-.2.6,0,.7-.1c0,0,.6-.2,1.3-.4,1.7-.3,1.3-.5-1.1-.7-1.4,0-2,0-2.2.1-.3.2-1,0-.9-.2,0,0,0-.2-.2-.2s-.3,0-.2.2c0,.1-.1.2-.3.3s-.3,0-.3-.2c0-.1-.1-.3-.3-.3s-.3,0-.2,0-.2.3-.7.4c-1,.4-1.1.4-.6,0,.2-.1.3-.3.2-.4,0-.1,0-.2.1-.3.2,0,.4-.1.5-.2.5-.2.2-.2-1-.3-.6,0-1.5-.2-1.8-.3-.8-.3-6.1-.4-9.2-.2ZM191.1,6.9q0,.3-.4.1c-.3-.1-.3-.1,0-.2.2,0,.3-.1.3-.1,0,0,0,.1,0,.2ZM207.5,6.9c-.1,0-.4.2-.6.2-.3,0-.3,0,0-.2.6-.2.8-.2.5,0ZM156.2,7.2c0,0-.2,0-.3,0-.1,0,0-.1.1-.1.2,0,.3,0,.2,0ZM157,8.4c-.4,0-.7.2-.8.4-.3.4-.4.4-.3,0,0-.5.6-.6,1.4-.4.3,0,.3.1-.2.1ZM159.7,8.3c0,0,0,.2-.2.2-.3,0-.3,0,0,.3s.3.2-.1,0c-.4-.2-.4-.3-.3-.4.2-.3.4-.3.6,0ZM156.9,9.4c0,.2,0,.2-.1.1,0,0-.2-.2-.3-.3s0-.1.1-.1.3.1.3.3ZM156.6,9.7c0,0,0,.1-.2.2,0,0-.2,0-.2,0s0-.2.2-.2.2,0,.2,0ZM153.3,10.4c-.1.1-.3.3-.4.3s0-.1.2-.3c.4-.3.5-.3.2,0ZM169.9,11.5c-.1,0-.3,0-.4,0-.1,0,0,0,.2,0s.3,0,.2,0ZM167.3,11.6c-.1,0-.3,0-.4,0-.1,0,0,0,.2,0s.3,0,.2,0ZM139.4,12.7c.2.3,0,.4-.3,0-.1-.2-.1-.3,0-.3s.2,0,.3.2ZM136.7,13c0,0-.2,0-.3,0-.1,0,0-.1.1-.1.2,0,.3,0,.2,0ZM203.8,15.9c0,0,0,.2,0,.2s-.2,0-.2-.2,0-.2,0-.2c0,0,.1,0,.2.2ZM203.4,16.4c-.5.2-.5.6,0,.8.5.2.3.3-.2.1-.2,0-.4-.2-.4-.4s-.1-.4-.3-.5c-.2-.1-.1-.2.5-.2s.7,0,.4.2ZM205,16.4c-.1,0-.4,0-.5,0-.2,0,0,0,.2,0s.4,0,.3,0ZM205,16.7c0,0-.2,0-.3,0-.1,0,0-.1.1-.1.2,0,.3,0,.2,0ZM173.1,27.4c0,0-.2,0-.3-.1-.2-.2-.1-.2.1,0,.2,0,.3.2.2.2Z"/>
    <path class="st0" d="M140.3,9.5c-.4,0-.8.2-.8.3s-.2.3-.3.5-.3.3-.3.3.7.1,1.3.2c.7,0,1.3.2,1.4.3s.5.2.8.2c.5,0,.7,0,.9-.5.3-.5.3-.5-.3-.7-.3-.1-.7-.3-1-.3s-.6-.1-.8-.2c-.2,0-.7,0-1.1,0Z"/>
    <path class="st0" d="M133.2,10.2c-1.3.2-1.8.4-.9.4s.7,0,.8.1c.1,0-.3.1-1,.1s-1.2,0-1.3.3c-.2.4.3.6,1.4.4,1-.1,1.9-.5,1.5-.7-.1,0,0,0,.4,0,.4,0,.5,0,.5,0s0-.2.3-.2.5,0,.6-.2c.2-.2.2-.2,0-.3-.3-.2-.5-.2-2.2,0Z"/>
    <path class="st0" d="M126,11.5c-1.1.1-1.9.3-3.8.9-.3,0-.7.2-.9.2s-.7,0-1,.2c-.6.2-.7.6,0,.5.3,0,.5,0,.6.2.1.2.2.2.5,0,.2-.2.4-.3.4-.1s.2.2.5.1c.5-.1.5,0,.2.1q-.3.3.1.3c.3,0,.6,0,.9-.2.2,0,.4-.1.4,0,0,0-.2.2-.5.3-.4.2-.4.2-.2.3.2,0,.6.2,1,.2.4,0,.7.1.7.3-.1.5.8.5,2.9.2,1.1-.2,2.7-.4,3.6-.4,1.2,0,1.7-.2,2.4-.5,1.1-.5.9-.8-.2-.8h-.8s.3-.4.3-.4c.3-.4.2-.6,0-.6s-.1,0,0,.2,0,.1,0,0c-.1,0-.5,0-.8,0-1.2.4-1.2.3-.9.5.2.1.2.2-.1.2-.5,0-.5.3,0,.4.2,0-.2,0-.7.1-.5,0-.9,0-.9-.1.2-.3-.6-.7-1.6-.8-1.1-.1-1.1-.1-.6-.3.3-.1.4-.2.3-.3,0,0,0,0,.3-.1.3,0,.5-.2.5-.3,0-.2-.6-.2-2.3-.1ZM125.7,13.1h.8c0,.1-.8,0-.8,0-.4,0-.9,0-1,0-.2.1-.1.2.1.2.2,0,.3,0,.2,0-.1,0-.4,0-.6,0-.3-.1-.3-.2-.1-.2.2,0,.3-.1.3-.2s-.2-.1-.5,0q-.6.1-.1-.1c.3-.2.5-.2.7,0,.2,0,.7.2,1.1.3ZM126.3,12.7c0,0-.3.2-.4.2s-.3,0-.2-.2c0-.1.3-.2.4-.2s.3,0,.2.2ZM126.1,14.2c0,.1-.1.2-.5.2-.5,0-.5,0-.1-.2.2,0,.4-.1.5-.2s0,0,.1.2Z"/>
    <path class="st0" d="M115.8,14.9c-.3,0-.5.2-.7.5-.1.2-.3.4-.4.4s-.6.2-1,.4-.9.4-1,.4-.3.1-.5.2c-.2.1-.6.4-1.1.5s-.8.4-.7.4c0,0,.2.1.3,0,.3-.1.8.4.7.7-.2.4.3.5,1.1.2.4-.1,1.1-.3,1.4-.3.4,0,.9-.2,1.1-.3.6-.4,2.5-1.1,2.6-.9,0,0-.2.2-.5.2-.3,0-.7.2-.9.4q-.3.3,0,.5c.3.2.3.3-.2.4-.6.2-.6.3-.3.6.2.2.5.3,1.8.2,1.7-.1,1.7-.1,2.4-.1.3,0,.5,0,.4.1,0,0-1,.1-2,.2-2.5,0-3.4.2-3.4.6s.5.8,1.5.8.9,0,.7.2-.2.3-.2.5c0,.3.2.3,1.5.2.8,0,1.9-.1,2.3-.2.5-.1,1.2-.2,1.6-.3h.8c0,0-.7,0-.7,0-1.4.3-1.7.5-1.6,1.2,0,.2-.1.2-.6.1-.7-.1-.8-.2-.7-.4,0,0,.3,0,.4,0,.4.2.6,0,.3-.3-.2-.2-.3-.2-.7,0-.9.4-3.1.5-3.7.3-.2-.1-.3-.1-.2,0,0,.2-.1.2-.7.2-.9,0-.7-.2.4-.4s1.1-.4.6-.8c-.3-.2-.6-.3-1.3-.3-.5,0-1.3-.1-1.8-.3s-.9-.3-1-.3-.3-.1-.4-.3c-.3-.3-1.7-.3-2.3,0-.3.1-.7.2-.9.2-.4-.1-.5-.4-.2-.4s.2,0,.2.2,0,.2.2.2.1,0,0-.2,0-.2.2-.3c.1,0,.3-.2.3-.3,0-.2-.8,0-1.2.2-.2.2-1.1.6-1.3.6s0-.3,0-.7c0-.5,0-.7-.2-.8-.2,0-.3,0-.4,0-.2.3-1,.7-1.4.7s-.3,0-.2-.3c0-.2,0-.3-.2-.2-.2,0-.5.2-.7.2-1.2.2-3.2.6-3.4.8-.2.1-.2.2.2,0,.4,0,.5,0,.2,0-.2.2-.4.2-.8,0-.5-.2-2.1-.3-2.1-.1s-.2.1-.3.1-.5.1-.6.3c-.5.5-2.4.2-2.2-.3,0-.2-.2-.2-.8-.3-1.2,0-1.8-.2-1.8-.4s-.5-.2-1.2-.1c-.7,0-1.7,0-2.3-.2s-1.7-.2-2.5-.3c-1.1,0-1.4-.2-1.4-.3,0-.2-.2-.2-.9-.2-.7,0-.9,0-1-.2,0-.1-.2-.2-.3-.1-.1,0-.3,0-.4-.2-.1-.2-.3-.2-1.1.1-.6.2-1.5.4-2.1.4s-1.6.2-2.1.3c-.5.2-1.2.3-1.5.3-.6,0-1.9.4-3.3,1.1-.6.3-1.5.5-2.4.6-.8.1-1.6.3-1.9.4-.3.1-.6.2-.8.2-.4,0-.4.3,0,.4.5.2.8.7.5,1s-.2.5.2.5.3,0,.2.3c-.2.4-.7.9-1.1.9-.5,0-1.3-.3-1-.3.2,0,.4-.1.5-.3.3-.3,0-.3-1.4,0-1.5.3-2.3.5-3.5.7-1,.2-1.4.4-1,.6s.3.2,0,.6c-.5.6-.3.7,1.2.7.7,0,1.3,0,1.4.1.1.1.4,0,.8,0,.7-.3,1.2-.3.8,0-.2.1-.2.2,0,.2.4,0-.6.8-1.1.9-.2,0-.7,0-1,0-.3,0-.6,0-.6,0,0,.3-1.1.5-1.7.4-.6-.1-1,0-1.9.6-.2.2-.6.3-.7.3-.3,0-1.5.5-1.6.7,0,0-.3.2-.6.2-.5.1-.9.8-.7,1.1,0,0-.1.2-.3.3-.4.1-.4.3-.4.8,0,.5,0,.6.4.6s.7,0,1.1-.2c.6-.1.6-.1.5.2-.1.2-.3.4-.5.4-.2,0-.4.3-.6.5-.2.2-.4.4-.6.4s-.2,0-.1.2.3.1.6,0c.3-.1.3-.1.3,0-.2.3,0,.2.6,0,.6-.3,1.4-.2,1.3.2-.1.3.4.3.6,0,.2-.2.3-.2.6-.1q.4.2-.3.7c-.4.3-1.1.7-1.5.9s-.9.4-1.1.5-.9.3-1.6.6c-1.5.5-2.2.8-2.2,1s-.2,0-.3,0c-.3-.2-.9,0-2.8.7-1.1.4-1.3.5-2,.6-.8,0-2.1.7-1.9.9s.3.1.5,0c.2-.1.6-.2.8-.2s.7-.1,1-.3c.3-.1.7-.2.8-.2s.5,0,.7-.2c.2-.1.4-.2.5-.2,0,0,.2,0,.2,0,.2-.3.9-.2,1.1.2.1.4.2.4.5.1s.3-.1.4,0c.2.2.3.1.4-.1.2-.3.1-.4,0-.4s-.3-.1-.3-.3.1-.3.4-.2c.3,0,.6,0,.8-.2.2-.1.5-.2.6-.2.2.1,1.3-.4,1.7-.7.1-.1.3-.2.4-.1,0,0,.2,0,.2,0s.2-.1.5,0c.3,0,.5,0,.4,0,0,0,.2-.2.6-.3s.8-.2,1.1-.4c.3-.2.8-.4,2-.8,0,0,.3-.1.6-.2.3-.1.6-.2.8-.2s.6-.2,1-.4c.4-.2.8-.4,1-.4.5,0,.9-.5.6-.7-.2-.1-.2-.2.1-.2.2,0,.4,0,.5,0,.1,0,.2,0,.3-.2,0-.1.3-.3.5-.3s.4,0,.4-.2.1-.2.3-.2.4-.1.6-.2c.5-.3.9-.5.9-.3s-.2.2-.4.3c-.2.1-.4.3-.3.4,0,.1-.1.3-.4.4s-.5.3-.5.3c0,.3.9.2,2.1-.3.6-.2,1.1-.4,1.1-.3s.1,0,.2,0c.3-.2,1.3-.3,1.7-.1.2,0,.6,0,1.1-.3.7-.3,1-.7.6-.7s-.2,0-.2.2,0,.2-.2.2-.1-.1-.1-.3c0-.2.2-.3.4-.3.2,0,.4,0,.4-.1s.2-.2.4-.2c.5,0,.5.4,0,.5-.2,0-.4.2-.4.3,0,.2,0,.2.5,0,.4-.1.7-.1,1.1,0,.5.2.5.2.1.3-.2,0-.4.2-.4.3s.1.1.3,0c.2,0,.8-.2,1.5-.2.9,0,1.3,0,1.8.2.3.2.7.2,1,.2.3,0,.4,0,.2,0-.2.1-.2.2.2.5s.5.6.5.8c0,.2.2.4.3.4.3,0,0,1.3-.4,1.7-.2.3-.3.4-.1.3.2,0,.3,0,.3.3s0,.4-.1.3c0,0-.1,0-.1.2,0,.4.3.3.6-.1.2-.2.3-.3.4-.3s-.1.3-.4.5c-.6.5-.6.6-.1.6h.4l-.4.2c-.3.1-.4.3-.3.7,0,.5.1.6.6.6.3,0,.6,0,.8-.3.3-.3.3-.3.5,0,.2.3.2.3.4-.1l.2-.4v.5c-.1.3-.1.5,0,.6,0,0,.2.2.2.3s0,.1-.2,0c-.1-.2-.2-.2-.3,0-.1.2-.2.3-.3.2-.2-.2-.6.3-.5.5,0,0,0,.2,0,.3-.3.2-.2.4.2.8.2.2.3.3.2.3s-.2.2-.2.4.2.4.3.3c.2,0,.1.1-.1.5-.2.4-.3.6-.2.7s.1.2,0,.2c-.2.1,0,.3.3.6.4.3.4.4.2.3-.4-.2-.7-.2-1.2,0-.2,0-.4,0-.4,0s.2-.2.4-.2c.3,0,.3,0,0,0-.4,0-.4.1-.4.5,0,.3,0,.5-.2.5s0,.1.2.2.4.3.4.4c0,.1,0,.3,0,.4,0,0,.2.2.4.3.2,0,.3.2.3.3,0,0,0,.2.2.3.2,0,.2.2.2.3s0,.2.1.2.4.1.5.3c.3.2.3.2-.2.2-.5,0-.6,0-1,1.4-.3.9-1.3,2.7-1.7,3.1-.1.1-.4.5-.6.8s-.7.9-1.1,1.3c-.9,1-1.2,1.5-1.5,2.5-.1.5-.5,1.2-.9,1.7-.6.7-.6.9-.5,1.1.2.2.1.4-.1.9-.3.5-.3.7-.1,1.1.1.2.2.6.1.7s0,.4,0,.4c0,0,.1.4,0,.7,0,.4,0,.7.1.8.2.1.2.2,0,.3-.2.1-.2.3,0,1.2.1.5.2,1.3.2,1.6,0,.6,0,.6.7.6s.6.1.6.3.3.3.7.3c0,0,.1,0,0,.2,0,.2,0,.3.1.3.4,0,.8.6.8,1.4s.1,2.8.2,2.8,0,.4,0,.9c0,.7.2,1,.4,1.1.2.1.5.5.7.8.4.6.4.6.1,1-.3.4-.4.5-1,.4-.2,0-.3,0-.3.1,0,.3,1.4,1.7,1.6,1.6.2-.1,1.3,1,1.3,1.4s-.1.5-.3.7c-.1.3-.3.6-.3.7,0,.3.3.7.6.7s1.6,1.4,1.6,1.8,0,.4.2.3c.1,0,.3-.2.5-.2.3-.1.3-.2.2-.7,0-.3-.1-.7-.1-.9s0-.3-.2-.3-.1.1,0,.2c0,.1,0,0-.2-.2-.3-.4-.3-.4-.4,0,0,.2,0,.2-.1-.1,0-.3,0-.5.2-.6.3-.2.2-.4,0-.4s-.5-1-.2-1.1c0,0,.1-.2.1-.3s0-.1-.2,0-.2,0-.2-.3c0-.4-.6-1.8-.9-2-.2-.1-.2-1,0-1.2s.1-.3,0-.3-.2,0-.3.1c-.1.2-.2.2-.2-.1s0-.4-.2-.5c0,0-.2-.2-.2-.3s.1,0,.3.2q.3.3.2-.2c-.1-.6-.2-.7-.4-.4-.1.2-.2,0-.5-.3-.3-.5-.3-.6-.1-1.5s.3-1.3.7-1.1c.2,0,.4.1.4.1.2,0,.8.6.8.9,0,.1,0,.6,0,1.2,0,.7,0,1.1-.1,1.4-.2.4-.2.7.1.7s0-.2,0-.4,0-.1.2.2c.2.3.4.7.5.8s.2.3.2.4.1.2.3.3c.2,0,.3.2.2.5,0,.3,0,.4.3.5.2,0,.4.2.4.4s.2.3.4.4c.3.1.3.1,0,.5-.2.2-.3.5-.3.6,0,.2.6.8.9.8s.2.2.4.5c.1.3.4.7.6.9.2.2.6.7.7,1,.2.3.5.8.7,1.1.4.5.4.8.4,2.3s0,1.2-.3,1.2-.3.7.2,1.4c.2.3.6.7,1,.9s.7.5.7.7c.2.3,1.1.8,1.7.8s.5.2.8.5c.5.5,2.3,1.4,2.7,1.4s.3.1.5.2c.4.3,1.3.8,1.5.8s.5.1.7.2c.5.3,1,.2,2-.3.3-.2.7-.3.8-.3.7,0,1.5.5,2.2,1.4,1.1,1.4,1.6,1.8,2.5,2,.5,0,1,.2,1.2.3,1,.5,1.6.7,2.4.6.6,0,.7,0,.5.2-.2.2-.2.3.4.9,1.5,1.8,1.8,2.3,1.5,2.9-.2.3,0,.8.6,1.1.5.2.5.2.7,0q.2-.3.2,0c0,.2.3.4.6.6.6.3.9.7.6.8-.2.1,0,.6.2.6s.4.2.6.4c.4.3.4.3.4,0s0-.3.3-.2c.2,0,.4.1.6.1.4,0,.6.5.3.7s-.2.4,0,.4.2-.1.2-.3c-.2-.4.4-.1.7.4.3.4.3.4.9.1.6-.3.7-.5.3-1-.3-.4-.3-.5.3-.7.3-.1.5-.3.5-.5s.1-.3.3-.3c.2,0,.4-1.1.2-1.1s-.6.3-1.2.6c-1.2.7-1.4.7-1.8.3-.2-.2-.3-.2-.3,0s0,.2-.2,0c-.1-.1-.2-.3-.2-.4s-.1-.3-.4-.4-.4-.3-.4-.5,0-.3-.2-.3-.3-.2-.3-.5c-.1-.3-.3-.6-.4-.8-.1-.3-.1-.5,0-.7.1-.2.2-.5.2-.8s0-.4.2-.4.2-.4.2-.9.1-1.1.3-1.5c.2-.3.3-.8.3-1,0-.2,0-.4.1-.5s0-.3-.3-.5c-.3-.2-.6-.5-.7-.7-.3-.3-2.4-.6-2.6-.4-.2.2-1.6.2-1.9,0-.1,0-.3,0-.4,0-.2.2-.3.2-.5,0-.1-.1-.3-.1-.5,0s0-.1.3-.4c.3-.3.5-.8.6-1.2,0-.4.2-.8.3-.9,0-.1.1-.2,0-.2s0-.2.3-.4c.2-.2.4-.5.4-.7s0-.5.2-.7c.1-.3.2-.6.2-.8,0-.2,0-.3.2-.4,0,0,.1-.3.1-.4s.1-.4.3-.5c.2-.2.2-.2.2,0-.2.4.2.3.4,0,.1-.2.1-.3,0-.3s-.1-.1,0-.4c.1-.2.2-.5.1-.7-.1-.4-.2-.4-1.2-.3-.6,0-1.6.2-2.2.3-.9.2-1.2.4-1.3.7-.1.2-.2.5-.2.6s-.2.6-.4,1.1c-.4.9-1.2,1.5-2.1,1.6-.9.1-2.2.4-2.5.6-.3.2-.4.1-.8-.2-.2-.2-.6-.5-.9-.5-.5-.1-.7-.5-1-1.6,0-.3-.2-.6-.4-.8s-.3-.6-.3-1-.1-.9-.2-1.1c-.1-.2-.2-.6-.1-.8.3-1.7.9-3.6,1.4-4.3.2-.3.4-.8.4-1.5.1-1.5.5-2,2.7-3.3,2.5-1.5,3.4-1.8,3.8-1.4s.6.2,1.1.2c.6,0,.9.1.9.3s.1.2.2.3c.7,0,1.2,0,1.3-.1.1-.2.7-.3.6-.1,0,0,0,.3,0,.4.1.3.1.3.4,0q.3-.3,0-.6c-.4-.3-.4-.3,0-.6.2-.1.3-.4.4-.5.1-.3,3.7-.4,4.2,0,.2.1.4.4.4.5,0,.4.6.5,1.1.1.6-.4,1-.4,1.3.1.1.2.3.5.5.7.4.4.4.8,0,1.4-.1.3-.2.7-.2.9.1,1,.3,1.8.5,1.8s.2.1.2.3.2.4.3.5c.2.2.3.5.3.8s0,.4.3.4c.2,0,.3,0,.4.1.1.2.2.2.3,0,0-.1.2-.3.2-.4,0-.1.1-.3.2-.5.5-.7.6-1.7.4-2.8,0-.6-.1-1.1,0-1.2,0,0,0-.6-.2-1.2-.5-2.1.4-4,2.6-5.1.3-.1.8-.6,1.2-1,.5-.5.8-.7,1.1-.7s.5,0,.5-.2c.2-.3,1.4-1,1.8-1s.9-.5.6-.7c-.2-.1,0-.3.5-.5.6-.3.7-.3.5,0,0,.2-.3.3-.5.3-.2,0-.2,0,0,0,.1,0,.4,0,.5-.1.3-.2.4-.3.4-1.3s0-1.2-.2-1.3c-.1-.1-.1-.3,0-.7.1-.3.2-.6.3-.8.1-.6.4-.6.3-.1,0,.3-.1.6-.2.7s-.2.4-.2.5c0,.3,0,.3.4-.2.2-.3.4-.6.3-.7,0,0,0-.1,0,0,.1,0,.4,0,.6-.4.3-.4.4-.6.4-1,0-.3,0-.6,0-.6,0,0,.2,0,.2.2,0,.4.1.3.9-.3.4-.3.8-.8.9-1.2.2-.5.3-.6,1.2-.8,1.2-.3,2.1-.7,1.6-.7-.2,0,0-.1.5-.3.4-.1.9-.2,1.1-.1s.4,0,.4-.1c0-.1.3-.2.4-.2.4,0,.6-.5.3-.7s-.2,0-.2.1c0,.4-.3.4-.5-.1-.1-.3,0-.4,0-.6.1-.1.2-.3.2-.4,0-.5,1.1-1.3,2.5-1.7.8-.3,1.6-.6,1.8-.7.2-.1.6-.3.9-.3.5,0,.8-.3.3-.3-.3,0,.4-.3,1-.4.3,0,.7-.2.9-.3.3-.1.5-.1.6,0,0,0-.4.4-1,.7-1,.5-1.2.6-1.2,1.1,0,.3,0,.6.2.7.3.3.8.3.8,0s.2-.2.3-.2.3,0,.3-.2c0-.2,1.3-1.1,1.5-.9.1,0,.3,0,.4,0,.4-.2,2.9-1.1,3-1,0,0,.2,0,.3-.3s.4-.3.5-.3c.4,0,1.2-.5,1.2-.8s-.1-.2-.3-.2c-.3,0-.3,0,0-.5.2-.3.2-.4,0-.5s-.4,0-1.2.8c-.6.6-1,1-1,.9s-.2-.1-.4,0c-.5.2-1.9-.1-1.7-.3.1-.2.9-.2.9,0s.2.1.3.1.3,0,.3-.2.2-.3.5-.4c.5-.3.4-.3-.5-.3-1.1,0-1.4-.2-1.3-.6,0-.2,0-.3-.1-.2-.1,0-.2.2-.2.3,0,.1,0,.2-.2.1-.3-.1-.3.2,0,.5.3.3.3.4,0,.3-.4-.1-.5-.6-.5-1.1,0-.2.3-.6.6-.9l.6-.6h-.5c-.7.3-.6,0,.2-.3,1.4-.5,1-1.5-.6-1.5-1,0-3.3.7-4.3,1.3-.9.6-1.1.5-.4,0,.7-.6,1.9-1.2,2.4-1.2s.5-.2.8-.5c.2-.3.6-.6.9-.7.3-.1,1.9-.2,4-.2,2.1,0,3.6,0,3.7-.2,0,0,.3-.2.5-.3.2,0,.6-.3.8-.5.6-.5,1.4-.8,2.1-.8h.5l-.8.7c-1.2,1.2-2,2.1-2,2.3s-.1.2-.3.2-.3.1-.4.3c0,.1-.2.2-.3.2-.2,0-.7.3-.7.5s.2,0,.4,0c.2,0,0,.1-.4.4-1.2.7-.9.9,1.4,1,4.3.2,4,.1,3.7.4-.3.3-.3.7,0,.7s.1,0,0-.2c0,0,0-.2,0-.3.1,0,.2,0,.2,0,0,.5,0,.7.4.6.6-.1,1.7-1.7,1.1-1.7s-.2,0-.2.2,0,.2-.1.2-.2-.1-.2-.3,0-.2.1-.2c0,0,.2,0,.3-.2.2-.2.2-.3,0-.3s-.4.2-.6.3c-.2.2-.4.3-.5.3s0-.2.2-.4c.3-.3.3-.4.2-.5-.1,0,0,0,.3,0,.3,0,.5,0,.6-.3,0-.2,0-.3-.3-.2-.4.1-.5-.4-.1-.5.4-.1.3-.4-.1-.6-.2,0-.3-.2-.2-.2.1,0,.2-.1.1-.2,0-.1-.2,0-.4.1-.1.2-.2.2-.2.1s-.1-.2-.3-.2-.3,0-.3.1-.2.1-.5.1c-.4,0-.5,0-.4-.2,0-.1.2-.2.3-.2.5,0,.2-.3-.3-.4h-.6c0-.1.6-.6.6-.6.4-.3.6-.4.7-.3.2.3.4,0,.2-.4,0-.2,0-.3,0-.3s.2-.1.3-.3c0-.2,0-.3-.4-.3s-.4,0-.2.2c.2,0,0,.1-.3.1-.3,0-.5,0-.5,0,0,0,.3-.2.8-.4.7-.3.8-.5,1-1.4.3-1.1.2-1.3-.3-1.4-.6-.1-.9-.8-.5-1,.4-.2-.2-.7-.8-.6-.3,0-.5,0-.4-.2,0-.2-.8-.5-1.2-.4-.2,0-.2,0-.1,0,.3-.3.3-.6-.2-1-.4-.4-.4-.4-.1-.5.3-.1.4-.8.2-1,0,0,0-.3.1-.5.2-.4.2-.4,0-.6-.2-.1-.3-.4-.3-.7s-.1-.8-.3-1.1c-.1-.3-.2-.8-.2-1.2,0-.4,0-.7,0-.7-.2,0-.6.5-.5.7s0,.1-.1,0-.7.3-1.2.9c-.5.5-1.1.9-1.2.9s-.5.2-.9.4c-.6.3-.8.3-1,.1-.6-.5-.9-.8-.9-1.1,0-.3.5-1.5.7-1.6.1,0,.1-.2,0-.3,0,0,0-.1,0-.1,0,0,.1,0,.1-.1s-.2-.2-.5-.2c-.3,0-.7,0-.9-.1-.3,0-.4-.1-.2-.4.2-.2.2-.3,0-.4-.5-.3-1.1-.8-1.3-1.1-.2-.2-.4-.3-.5-.3-.3,0-.3.3,0,.3s0,0-.1.2c-.3.2-.6.2-2.6-.2-1-.2-1.1-.2-1.4.2s-.4.6-.4.8c0,.5-.4.9-1.1,1.2-.7.3-.7.4-.1.3s.4,0,.3.3c0,.2-.1.5-.1.6s0,.2-.1.2-.5.3-.9.6-.8.6-.9.6c-.2,0-.6.4-.6.6s0,.1.2.1c.3,0,1,.7,1,1.1s-.6,1.7-1,2.1c-.6.6-2.6,1.5-3.6,1.7l-1,.2v.7c.1.4.1.7,0,.7s-.2.2-.2.4,0,.5-.1.5c0,0-.2.3-.2.6,0,.4-.2.7-.5.9-.3.2-.5.5-.4.6,0,0,0,.2,0,.2s-.2-.1-.2-.2c0-.1-.2,0-.5.2-.5.4-.8.4-.8-.2s-.1-.4-.3-.5c-.2-.1-.3-.3-.3-.5,0-.1,0-.4-.2-.5-.1-.3,0-.3.4-.2,1,.3,1,.3,1-.2s0-.4-.5-.4c-.4,0-.5,0-.5-.3,0-.2.2-.4.2-.4s.2-.3.2-.5,0-.4.1-.4c.2,0,.7-1,.6-1.1s-.7-.1-1.5-.2c-.8,0-1.4-.2-1.6-.3s-.6-.3-1-.5c-.4-.1-.7-.3-.7-.4,0-.3-.6-.8-1.1-1-.2,0-.6-.2-.9-.4-.4-.2-.7-.2-1.2,0-.3.1-.7.2-.7.2-.1,0,0-.9.3-1.6.3-.6.1-.8-.6-.8s-.6,0-.6-.1c0-.2,1.5-2.1,1.7-2.1s.6-.3,1.1-.8c.6-.4,1.2-.8,1.5-.8.3,0,.5-.2.6-.3s.4-.3.7-.4c.3,0,.6-.2.6-.3s.1-.1.2-.1c.1,0,.2,0,.2-.2,0-.2.1-.2.9,0,.2,0,.3,0,.1,0s0-.2.4-.4c.3-.1.7-.3.8-.5s.4-.3.5-.3.4,0,.5-.2.6-.2,1-.3c.9,0,2.7-.9,3.3-1.5s1.5-1.1,1.7-1.1-.4.4-.9,1c-.5.5-1,1.1-1,1.2s-.3.3-.8.4c-.9.3-.9.6,0,.6.6,0,.6,0,.5.3-.1.5.3.5,1.2,0,.3-.2.7-.3.9-.3s.4-.2.5-.3c.4-.4,1.1-.3,1,0-.1.3,1.2.5,1.9.2.5-.2.6-.3.4-.5,0-.2-.3-.3-.4-.2s-.3,0-.3-.3c-.1-.4-.7-.8-1.5-1.2-.2-.1-.3-.2-.2-.6,0-.3.2-.5.2-.6.1-.1.4.4.3.5,0,.1,0,.2.7.2.1,0,.2-.1.2-.3,0-1,0-1,.4-.6.3.4.3.4.4.1,0-.2.3-.3.4-.3s.5-.1.8-.3c.3-.1.6-.3.7-.3s.4-.2.6-.4c.3-.3.3-.5.2-.6-.2-.3.2-.7.9-1,.3-.1.6-.4.7-.6.2-.4.2-.4-.1-.4-.6,0-.5-.3.1-.5.5-.1.7-.1,1.1,0,.3.2.7.2,1,.2.6-.1.9.2.3.4-.5.1-.9.6-.6.6.2,0,0,.1-.2.4-.2.2-.3.4-.3.5s.2,0,.2-.1c0-.1.2-.2.3-.2.2,0,.3-.2.3-.6,0,0,0-.1.2-.1.3,0,1.5-.9,1.5-1.1s-.1-.1-.3,0c-.6.3-.9.3-.9.1s.2-.2.4-.2.5-.1.6-.4c0-.2.2-.3.2-.2,0,.1.1.2.3.2s.2.1.1.3,0,.2,0,.2c.1,0,.2,0,.2,0s.2.3.5.4l.5.3h-.5c-.3,0-.4,0-.4-.1.2-.3-.3-.4-.5-.2-.2.2-.2.3,0,.4.1.1.1.3,0,.4,0,.2,0,.2.5,0,.5,0,.6,0,.6.2s-.2.3-.7.3c-1.1,0-2.4.8-2,1.4s2.5-.1,2.5-.6.1-.3.2-.4c.2-.2.2-.1.2.1,0,.2.1.3.6.4.5,0,.6,0,.6-.2s-.2-.3-.4-.3-.4-.2-.4-.3c0-.2,0-.2.2,0,.2.2.3.2.4,0s.1-.2.1,0c0,.1.2.2.4.2s.3,0,.3.4c0,.2,0,.5,0,.7,0,.2-.2.3-.3.3s-.4.1-.5.2c-.2.1-.6.4-1.1.5-1.1.4-1.2.5-1,.8s.3.5,0,.5-.6,0-.9.2c-.4.1-.9.1-1.5,0-.7-.1-1-.1-1.5.2-.9.5-1.3.9-1.1,1.1.3.3,1,.4,1.8.2.4-.1,1-.2,1.3-.2s.8,0,1,0c.2,0,.3,0,.3.2,0,0,0,.2.2.2s.3.1.2.3.1.5.3.7c.2.2.4.5.4.7,0,.4.3.5.7.3.4-.2.5-.1.9.2.3.2.6.4.8.4s.8.2,1.3.3c.5.2.8.3.8.3s.2,0,.4.3c.4.4.8.2.7-.4-.1-.4-.6-.5-.6-.2s-.1.2-.2.1c-.1,0-.2-.2-.2-.4,0-.2-.1-.5-.4-.7-.2-.2-.4-.4-.4-.5s-.2-.2-.3-.2-.3-.2-.3-.4c0-.3,0-.3.3,0,.2.2.4.3.5.2,0,0,.2,0,.4.2.2.3.3.3.5.1.2-.1.2-.1.2,0,0,.1,0,.2.3.3.2,0,.4.3.5.4.1.4.5.5.7.2,0-.1,0-.3-.1-.3-.2-.1-.2-.2,0-.2s.2-.2.2-.3,0-.3.2-.2c.1,0,.4,0,.5-.2.3-.2.3-.3,0-.6-.2-.3-.2-.5,0-.7.2-.3,0-.6-.6-.6s-.5-.3-.6-.9c0-.2,0-.3.2-.3.3,0,.3-.2,0-.5-.2-.2-.2-.2,0-.1.1,0,.3,0,.4,0,.3-.2,1,.4,1.1.9,0,.4.4.8.5.7,0,0,.2,0,.4,0,.4.2.8,0,1-.4.1-.3.2-.4.7-.3.4,0,.6,0,.6-.1,0-.3.4-.7.7-.7s.4-.2.6-.3l.4-.3-.5-.3c-.3-.2-.6-.3-.7-.3s-.2,0-.1-.1c0-.1,0-.2-.1-.2s-.4-.2-.6-.4c-.3-.3-.5-.4-.8-.3s-.4,0-.5-.1c0-.1-.4-.3-.7-.4-.3-.1-.6-.3-.6-.4,0-.2.8-.6,1-.5.3.2.6,0,.3-.4-.2-.2-.2-.3,0-.3.6-.2-.2-1.1-1.1-1.4-.4-.1-.7-.1-.8,0,0,0-.1,0-.1-.2s0-.2-.2-.2-.2,0-.2-.2c0-.3-.2-.3-.8-.3s-.8.1-1,.2c-.2.2-.2.2,0,0,.2-.2.2-.3,0-.3s-.2,0-.1-.2c0-.1,0-.2-.2-.2s-.3-.1-.3-.3-.2-.3-.4-.3c-.2,0-.5-.1-.7-.2-.2,0-.2,0,.1-.1.3,0,.5-.1.5-.2,0-.5-.6-.7-2-.8-1.1,0-1.4,0-1.6.2-.3.3-.3.3-.3,0s-.8-.4-2.4,0c-1.3.3-1.6.3-1,0l.4-.2-.4-.2c-1.2-.4-4.4.6-5.8,1.8-.2.2-.4.3-.4.3-.2,0-.8.8-.7.9,0,0,.5.1,1,.2l.9.2h-1c-1.1,0-1.3.2-.8.7.3.2.5.3.7.3.2,0,.3,0,.2,0-.1.2,0,.2,1,.2.4,0,.6,0,.4,0-.4.2-.7.5-.7.9,0,.2-.2.4-.3.4s-.5.2-.8.5c-.6.5-.9.6-.7.3,0-.1,0-.2-.1-.2-.3,0-.9.6-.7.8,0,0-.1.2-.4.3-.4.2-.6.2-.7,0-.2-.4,0-.7.4-.9,1-.5.6-1.6-.4-1.2-.5.2-.5.2-.4-.2,0-.3,0-.3-.2-.3-.4,0-.5-.6-.2-.7.2,0,.2-.2,0-.5s-.2-.4,0-.6c.3-.3,0-.9-.3-.9-.2,0,0-.1.4-.3.4-.2.8-.4.8-.5,0-.1.5-.2,1.1-.3,1.2-.1,3.7-1.3,3.4-1.5-.1,0-.5-.2-.9-.2s-1,0-1.4-.1c-.8-.1-2.1.1-2,.4,0,.1,0,.2-.2,0-.1,0-.4,0-.6.2s-.5.4-.7.5c-.2,0-.3.2-.2.4.1.4-.4.9-1.2,1.2-.3.1-.6.3-.6.3s-.2.1-.4.1c-.5,0-1.2.5-1.2.8s-.2.3-.4.4c-.3.2-.4.4-.4.6,0,.3,0,.4-.4.4-.3,0-.6,0-.8-.2-.3-.2-.4-.2-.8,0-.3.1-.6.3-.6.4s-.4.3-.8.3c-.7.1-.9.5-.3.6.2,0,.4.2.4.3,0,.2,0,.2-.3.1-.3,0-.5,0-.7.3-.4.4-.5.4-2.3.4-1.6,0-1.9,0-2-.2,0-.2-.2-.2-.4-.2-.5.2-.8-.1-.4-.3q.3-.1,0-.2c-.2,0-.4,0-.4,0-.1.2-.2.1-.2-.2,0-.2-.2-.4-.3-.5s-.2,0-.1,0-.1.1-.4,0h-.5c0,0,.5-.3.5-.3.3-.2.5-.2.6,0,.2.2.5.2.4,0,0,0,0-.1.2,0,.1,0,.3.2.3.3,0,.1.5.2,1.1.2.6,0,1.2.1,1.3.2.2.2.3.1.6-.2.2-.2.5-.4.6-.4.2,0,.3-.1,0-.5-.1-.2,0-.3.2-.3.2,0,.3,0,.3.2s0,.2.1.2c.2,0,1.1-.7,1.1-.9s-.7-.6-1.6-.8c-.4-.1-.4-.4,0-.6.2-.1.3-.3.3-.4,0-.6.7-1.4,1.6-1.8.5-.2.9-.5.9-.5,0-.2-.5-.3-1-.3s-1.5.4-1.2.5c.1,0,.2.2.2.2s-.1.1-.3,0c-.7-.3-1.4-.2-1.9.4-.3.3-.6.7-.7.9,0,.2-.2.4-.3.4-.2,0-.2-.3,0-.6,0-.1,0-.4-.2-.6-.4-.4-1.1-.4-1.1,0s-.2.3-1.1,0c-.6-.2-.8-.2-1.3,0-.4.2-.5.2-.3,0,.3-.3.3-.5-.1-.5s-.4-.2-.5-.4c-.3-.5-.6-.6-1.9-.7-.5,0-1.7,0-2.5-.1-.9,0-1.8,0-2.1,0ZM148.5,16.4c-.3.2-.6.5-.8.8l-.3.5-.2-.4c0-.2,0-.4,0-.5,0,0,.4-.2.7-.4.3-.2.7-.3.8-.3s0,.1-.3.2ZM153.2,16.6c0,.3.2.4.8.3.6,0,.7,0,.3,0-.2,0-.8.2-1.2.2-.7,0-.8,0-.5-.3s.3-.4.2-.5c0-.1,0-.2,0-.2s.2.2.3.4ZM147,17.6c-.2,0-.2.2,0,.4.2.3,0,.5-.3.2-.2-.3,0-.7.3-.7.2,0,.2,0,0,.1ZM157,17.8c0,0-.2.2-.4.2-.2,0-.2,0,0-.2q.5-.2.3,0ZM159.5,19.2c-.1,0-.4.2-.6.2-.3,0-.3,0,0-.2.6-.2.8-.2.5,0ZM161.2,19.9c0,.1,0,.2.2,0,.2,0,.4,0,.4.1.1.2-.2.3-1,.4-1.3.2-1.6.2-.5-.1.4-.1.7-.3.7-.3,0-.2,0-.4.1-.4s0,0,0,.2ZM144.3,19.9c0,0-.2,0-.3,0-.1,0,0-.1.1-.1.2,0,.3,0,.2,0ZM160.5,20.1s-.2.1-.3.2-.3,0-.2,0c0-.2.6-.2.6,0ZM103.3,20.3c0,0-.2,0-.3,0-.1,0,0-.1.1-.1.2,0,.3,0,.2,0ZM147.4,20.3c0,0-.2.2-.4.2-.3,0-.3,0-.1-.2.3-.2.5-.2.5,0ZM149.9,20.3c-.2,0-.4,0-.6,0-.2,0,0,0,.3,0s.5,0,.3,0ZM101.9,20.5c-.1,0-.4.2-.5.2s-.1,0,0-.2c.5-.2.7-.2.4,0ZM138.9,20.5c0,0,0,.2-.2.2s-.2,0-.2-.2,0-.2.2-.2.2,0,.2.2ZM136,20.9c0,0-.2.3-.4.4-.5.3-.6.6,0,.5.2,0,.3,0,.2,0-.2.2-1.5.6-2.2.8-.3,0-.5.3-.6.5-.1.3-.2.4-.4.3-.3-.1-.3-.1,0-.3.2-.1.2-.3.2-.4,0-.1,0-.2,0-.1.2.2.8-.2.7-.4,0,0,.3-.2.7-.3s.7-.3.7-.4c0-.1-.2-.1-.3,0-.1,0-.1,0-.1-.2,0-.2.2-.3.4-.3.2,0,.4,0,.5-.1.1-.2.8-.2.8,0ZM98.2,21.1c-.8.3-1.2.3-.7,0,.2-.1.6-.2.8-.2.4,0,.3,0-.2.2ZM161.8,21c0,0-.3.1-.6,0s-.6-.1-.6-.1.3,0,.6,0,.6,0,.6.1ZM139.5,21.6c-.1.4-.4.7-.5.6,0,0,.4-.9.5-.9s0,.2,0,.4ZM152.8,21.5c0,0-.2.2-.3.2s-.1,0,0-.2c0-.1.2-.2.3-.2s.1,0,0,.2ZM147.6,21.7c0,0,0,.2-.2.2s-.1,0,0-.2c0-.1.1-.2.2-.2s0,0,0,.2ZM153.8,21.6c0,0-.2,0-.3,0-.1,0,0-.1.1-.1.2,0,.3,0,.2,0ZM142.1,22.7c0,.1-.2.2-.3.2s-.1-.1,0-.3c.2-.3.4-.2.3,0ZM131.5,22.8s-.1.1-.3.2c-.1,0-.3,0-.3,0s.1-.2.3-.2.3,0,.3,0ZM154.2,22.8c-.2,0-.4,0-.6,0-.2,0,0,0,.3,0s.5,0,.3,0ZM120.6,23.7s-.2,0-.4,0-.3,0-.2-.2c0-.1.6,0,.6.1ZM132.4,23.8c0,0-.2,0-.3,0-.1,0,0-.1.1-.1.2,0,.3,0,.2,0ZM108.8,24.1c-.2,0-.6.2-.9.4-.6.2-.6.2-.2.4.2,0,.8.1,1.3,0h.8c0-.1-.5.2-.5.2-.3.2-.8.3-1.2.3-.8,0-1.4.2-1.3.4,0,.1-.3.2-.6.2,0,0-.4.1-.7.2s-.6.2-.7.2c-.1-.1,1.2-.6,1.4-.5.1,0,.3,0,.3-.1.2-.3-1.3,0-1.8.4-.4.3-.6.3-.9.2-.3-.2-.3-.2,0-.2.2,0,.3-.1.3-.2s.2-.2.3-.2.4-.1.6-.3c.1-.1.4-.2.6-.2h.6c.6,0,0-.5-.7-.5h-.6s.6,0,.6,0c.3,0,.5.1.5.2s0,.2,0,.2c0,0-.5-.1-1-.2l-.9-.2,1.4-.2c.7-.1,1.8-.3,2.5-.4,1.3-.3,1.6-.3,1.1,0ZM156.1,24.1c0,0,.2.2.4.3.6.2.3.4-.6.5-.6,0-.7,0-.6-.2.2-.5.7-.9.7-.5ZM164.8,24.2c0,0,0,.1-.2,0-.4-.1-.4-.2-.1-.2s.3,0,.3.2ZM68.8,24.5c0,0-.2,0-.3,0-.1,0,0-.1.1-.1.2,0,.3,0,.2,0ZM141.4,25.1c0,.3,0,.5,0,.3,0-.1-.2-.2-.4-.2s-.3,0-.3-.1c0,0,0-.2,0-.3-.2-.2,0-.2.3-.2s.5,0,.5.5ZM137.3,25.7c.3.3.3.3,0,.2-.2,0-.4-.2-.5-.3,0-.3.2-.3.6,0ZM65.2,26.8c0,0-.2.2-.3.2s-.1,0,0-.2c.3-.2.4-.2.3,0ZM150.3,27c0,0-.1.2-.3.2s-.2-.1-.2-.3c.1-.3.4-.2.4.1ZM152.4,28.3c0,0-.2.2-.3.2s-.2,0-.2-.2.1-.2.3-.2.2,0,.2.2ZM108.4,30.3c.3.3,1.2.2,2.2-.2.2,0,0,0-.5.3-.5.3-1.2.5-1.7.6-.5,0-.9.3-1,.4-.2.3-2.8.5-3.1.3-.2-.2-.2-.2,0-.2.1,0,.4,0,.6,0s.5-.1.8-.3.7-.3,1.1-.4c.5,0,.6-.2.6-.6,0-.5,0-.5.4-.3.2.1.5.3.7.4ZM157.7,31c0,0-.2,0-.3,0-.1,0,0-.1.1-.1.2,0,.3,0,.2,0ZM70.2,31.6s-.1,0-.3,0-.3,0-.3-.2.1-.1.3,0c.1,0,.3.1.3.2ZM68.8,31.8c0,0-.2,0-.3,0-.1,0,0-.1.1-.1.2,0,.3,0,.2,0ZM68.1,32.1c-.2.2-.8.5-.8.4s.4-.4.8-.5c0,0,0,0,0,.2ZM62.6,33.7c-.1,0-.4,0-.5,0-.2,0,0,0,.2,0s.4,0,.3,0ZM63.6,33.6s-.2.1-.3.2-.3,0-.2,0c0-.2.6-.2.6,0ZM80.9,35c0,0-.2,0-.2-.2-.1-.2,0-.3,0-.1.1.1.2.3.1.3ZM81.2,35.4c0,0,0,.2,0,.2s-.2,0-.3-.2c0-.1,0-.2,0-.2s.2,0,.3.2ZM80.3,35.8c0,.1,0,.3,0,.4.1.2.1.2,0,.2s-.2,0-.2-.1c0,0,0-.2-.1-.3-.1,0-.1-.2,0-.3.3-.2.4-.2.2,0ZM58.5,36c0,0,0,.2,0,.2,0,0-.1,0-.2-.2,0-.1,0-.2,0-.2s.2,0,.2.2ZM81.8,36.7c-.2.3-.8.3-.9.1,0,0,0-.1.2,0,.2,0,.4,0,.4-.1,0-.1.2-.2.3-.2s.1.1,0,.3ZM81.5,37.3c0,.1,0,.1,0,0-.1,0-.3,0-.3.2-.1.2-.2.2-.3,0,0-.1,0-.2,0-.2s.1,0,0-.2c0-.1,0-.2.2-.2s.3,0,.4.2ZM80.4,37.9s-.1.2-.3.3c-.3.2-.3.2,0,0s.4-.4.4-.2ZM81.1,38.6c0,.1,0,.3,0,.3s-.1-.1-.2-.3c0-.1,0-.3,0-.3s.2.1.2.3ZM82.2,38.4c0,0-.2,0-.3,0-.1,0,0-.1.1-.1.2,0,.3,0,.2,0ZM80.2,39.7c-.1.2-.2.4-.2.4,0,0,0-.2,0-.4s0-.5.2-.4c.2,0,.2.2,0,.4ZM115.8,41.7c.1.2-.3,2.7-.5,2.7s-.2,0-.2-.1,0-.2-.2-.4c-.1-.2-.2-.2-.4,0-.2.2-.2.2-.2,0s0-.4-.1-.6c-.1-.3,0-.4.3-.5l.4-.2h-.4c-.5,0-.5-.1,0-.6.5-.4,1-.5,1.2-.2ZM158.3,41.6s-.3.2-.5.3c-.5.2-.5.2-.2,0,.3-.2.8-.3.8-.2ZM80.6,42.2c0,0,0,.2,0,.2,0,0-.1,0-.2-.2,0-.1,0-.2,0-.2s.2,0,.2.2ZM115.3,45.2s-.2.3-.5.6-.5.4-.5.3.2-.4.4-.6c.5-.4.6-.4.6-.3ZM82.4,47.3c0,.2.2.4.5.5.4.2.5.2.3.4s-.2.2,0,.2.2.2.2.4c0,.3,0,.3-.2.2,0-.1-.2-.2-.4-.1-.1,0-.2,0-.1-.1,0-.1-.1-.4-.4-.7-.5-.5-.6-1-.3-1s.2.1.2.3ZM124.4,48.8c.2,0,.2.2.2.5-.1.5.4.8.9.6.3-.1.3,0,.1.2-.1.1-.2.3-.1.4,0,0,0,.2,0,.4-.2.4-.2.5-.2.8,0,.1-.1.3-.2.3s-.2-.1,0-.3c0-.2,0-.2-.7-.1-.4,0-.9.2-1.1.3-.4.2-1.1,0-1.2-.3,0-.1-.2-.2-.4-.2s-.1-.1.3-.4c.6-.4.6-.6,0-.4-.3,0-.4.2-.3.3s0,.1,0,0c-.1,0-.4,0-.7.2-.3.2-.8.4-1.1.4-.3,0-.7.2-.9.3q-.4.1,0-.2c.3-.3.3-.3-.4-.2-.4,0-.7,0-.7,0,0-.2,1.9-1.1,2.6-1.3.4-.1.8-.3.9-.4,0,0,.2-.2.3-.2s0,.1-.2.3c-.2.1-.2.3-.1.3.4,0,1.1-.3,1.1-.5s-.1-.1-.2,0-.3,0-.4-.1c0-.1,0-.2,0-.1,0,0,.6,0,1.1-.2,1-.3,1.5-.4,1.9-.2ZM82.9,49.4c0,0-.4.1-.6.1-.4,0-.4,0-.2-.1.2,0,.4-.2.5-.2.2-.2.5,0,.4.2ZM148,49.9c.1.2,0,.2-.4,0-.2-.1-.2-.2,0-.2s.3,0,.4.2ZM149.8,52.2s-.2,0-.4,0-.3,0-.2-.2c0-.1.6,0,.6.1ZM127.5,52.5c.1,0-.2,0-.6,0-.5,0-.8,0-.8-.1,0-.1,1.1,0,1.4,0ZM124.3,52.7c0,.2-1.1,1.2-1.3,1.2-.6.2-.7.3-1.3.9-.7.8-1,1.4-1,2.1s-.3.7-.7,1.2c-.8.8-1.3.9-1.3.4,0-1,.7-2.4,2.1-4,.7-.8.9-1.2.3-.7-.1.1,0,0,.2-.3.3-.3.5-.4.7-.4.2,0,.4,0,.6-.1.4-.3,1.7-.5,1.7-.3ZM127.2,53.2c.6.2.6.2.9,0,.4-.5.9-.5,1.1.2.4,1.2-.3,1.8-.9.8-.4-.6-.7-.7-.6,0,0,.4,0,.6-.4.9-.3.2-.6.6-.6.9-.1.4-.7,1-1,1s0-.3,0-.7c0-.6,0-.7-.3-.7-.2,0-.5.2-.6.3-.1.1-.3.2-.4.2s.2-.3.7-.8.7-.8.7-.9,0-.2,0-.3c.3-.2.2-.4-.3-.6-.2-.1-.4-.3-.4-.4s.2-.2.8-.1,1.1.2,1.4.4ZM127.6,52.9c0,0-.2.1-.3.1s-.2,0-.2-.1.1-.2.3-.2.2,0,.2.2ZM133.2,55.6c0,.6-1,.9-2.1.8-.5,0-1.2,0-1.5,0-.8.2-.8,0,0-.4.4-.2,1-.3,1.8-.3s1.1,0,1.1-.1.2-.1.3-.1.3,0,.3.1ZM129.3,57.2c0,.1-1.3.8-2.5,1.2-1.6.6-2.3.8-2.7.6-.4-.2-.4-.5,0-.5s.3.1.3.2c0,.2,0,.2.1,0,0-.1.6-.4,1.1-.7.8-.4,1.1-.5,1.8-.4.5,0,.7,0,.5,0-.2-.1-.1-.2.3-.3.3,0,.7,0,.8,0,.1,0,.2,0,.2,0ZM124.9,58.2c0,0-.3.2-.4.2s-.3,0-.3-.2.2-.2.4-.2.4,0,.3.2ZM129.7,64.3c.2.3,0,.4-.3,0-.1-.2-.1-.3,0-.3s.2,0,.3.2ZM129.7,67.2c0,.1,0,.1-.2,0-.3-.1-.4-.2-.1-.2s.2,0,.3.2ZM109.7,75.6c0,0,0,.2-.2.2s-.2,0-.2-.2c0-.1.1-.2.2-.2s.1,0,.2.2ZM111.6,103.2c.2.4.2.4-.4.4-.5,0-.5,0-.3-.2.3-.2.3-.2,0-.3-.2,0-.3-.3-.3-.4,0-.3,0-.3.4,0,.2.1.5.4.6.7Z"/>
    <path class="st0" d="M138,15.3c-.5,0-1.2.2-1.5.2-.4,0-1,.2-1.3.3-.5.2-.6.3-.4.4.4.2.2.6-.4.6s-.5,0-.5-.2c0-.2-.6-.2-1,0-.4.2-.2.6.5,1,.4.2.6.4.6.7,0,.5,0,.5,2.1,0,.9-.2,1.2-.3,1.8-.9.4-.4.8-.9.8-1.1s.1-.3.3-.3c.3,0,.3-.1.1-.5-.1-.2-.3-.2-1-.1ZM138.2,16.5c.2.2.2.2,0,.1-.2,0-.3,0-.4.1,0,.1-.1,0-.2-.1-.1-.3.2-.4.6-.1Z"/>
    <path class="st0" d="M62.8,35.2c-.5.2-.9.4-1,.5s-.3.1-.5.1-.5.1-.6.3-.3.2-.3.2c-.2-.1-1.2.3-1.4.6-.2.5,0,.8.6.6.3,0,.6-.2.7-.2s.4-.1.6-.2c.2-.1.6-.3,1-.4.5-.2.7-.4.7-.9,0,0,.3,0,.6,0,.5,0,.6,0,.6-.4s0-.4,0-.4c0,0-.4.2-.9.4Z"/>
    <path class="st0" d="M116.9,86c-.2,0-.8.2-1.2.3-.4.1-.9.3-1.1.5-.2.2-.4.3-.6.3-.2,0-.2,0,0,.2s.2.2-.1.3c-.5.1-.5.3,0,.4.2,0,.6,0,.8-.2s.5-.3.7-.3.4-.2.7-.3c.3-.2.6-.3,1.1-.3.4,0,.6,0,.4.1-.2,0-.3.1-.3.2,0,.2,1.1.5,1.5.5s.6.2,1.1.4c.5.2,1,.4,1.2.3.3,0,.4,0,.4.3s.1.5.3.6.3.3.3.4.1.3.3.4c.2.1.2.3.2.4-.1.3,3.5.2,4.2,0l.5-.2-.5-.4c-.3-.2-.7-.4-.9-.4-.3,0-.4,0-.4-.3s-.2-.4-.7-.5c-.7-.2-1.7-1.1-1.7-1.5s0-.2-.1,0c0,0-.2,0-.4-.1-.3-.3-.8-.3-.6,0,0,.1,0,.2-.2,0-.2,0-.4-.1-.5-.1s-.2,0-.2-.2c.1-.5-2.9-1.1-4-.8ZM123.1,89.9c0,.1-.1.2-.4.2s-.5,0-.5-.2.2-.2.4-.2.5,0,.5.2Z"/>
    <path class="st0" d="M128.1,90.7c-.6.3-.6.5,0,.5s.3.1.3.5,0,.6.2.7c.3.3-.3.4-1.3.3-.8-.2-.9-.1-1.1.1-.1.2,0,.4.4.6.6.3.9.4.7.1,0,0,.4-.1.9-.1.9,0,1.1,0,1.4.5l.3.5.4-.6c.4-.6.6-.7.8-.4,0,.1.2,0,.5,0,.5-.3,1.5-.2,1.6,0,0,0,.2.2.3.2s.2,0,.2-.1c0,0,0-.2.2-.3.3-.2.2-.3-.3-.8-.3-.3-.8-.6-1-.6s-.4-.1-.4-.2c0-.3-1.4-.7-2.3-.5-.6,0-.8,0-1.1-.1-.3-.2-.4-.2-.8,0Z"/>
  </g>
</svg>